<svg width="57" height="40" viewBox="0 0 57 40" fill="none" xmlns="http://www.w3.org/2000/svg">
<path d="M27.0299 28.756L26.0702 28.4749L26.0689 28.4795L27.0299 28.756ZM24.1179 34.736L23.3337 34.1155L23.3295 34.1209L24.1179 34.736ZM19.7239 38.272L20.137 39.1827L20.1412 39.1808L19.7239 38.272ZM8.80394 38.272L8.37947 39.1775L8.39084 39.1827L8.80394 38.272ZM4.46194 34.736L3.67352 35.3511H3.67352L4.46194 34.736ZM1.57594 28.756L0.614411 29.0307L0.614937 29.0325L1.57594 28.756ZM1.57594 11.648L2.53694 11.9245L1.57594 11.648ZM4.46194 5.668L3.67352 5.05286L4.46194 5.668ZM8.80394 2.158L9.2206 3.06707L9.22477 3.06514L8.80394 2.158ZM19.7239 2.158L19.3031 3.0652L19.3143 3.07027L19.7239 2.158ZM24.1179 5.668L23.3295 6.28315L23.3337 6.28848L24.1179 5.668ZM27.0299 11.648L26.0689 11.9246L26.0708 11.9309L27.0299 11.648ZM20.8679 13.442L19.892 13.6599L20.8679 13.442ZM19.2559 9.178L18.4071 9.70678L18.4134 9.71666L19.2559 9.178ZM16.9679 6.968L16.5207 7.86242L16.5279 7.86603L16.5352 7.86952L16.9679 6.968ZM11.5859 6.968L12.0258 7.86609L12.0332 7.86242L11.5859 6.968ZM9.32394 9.178L8.47516 8.64925L9.32394 9.178ZM7.73794 13.442L6.76193 13.2241L6.76 13.2331L7.73794 13.442ZM7.73794 26.962L6.75995 27.1709L6.76197 27.1799L7.73794 26.962ZM9.32394 31.226L8.47516 31.7547L9.32394 31.226ZM11.5859 33.462L11.1315 34.3528L11.1423 34.3583L11.1532 34.3635L11.5859 33.462ZM16.9679 33.462L17.4007 34.3635L17.4079 34.36L17.4152 34.3564L16.9679 33.462ZM19.2559 31.226L18.4134 30.6873L18.4072 30.6973L19.2559 31.226ZM27.0959 20.202C27.0959 23.4093 26.7476 26.1619 26.0702 28.4749L27.9896 29.0371C28.7336 26.4968 29.0959 23.5467 29.0959 20.202H27.0959ZM26.0689 28.4795C25.403 30.7935 24.4837 32.662 23.3337 34.1155L24.9022 35.3565C26.2481 33.6553 27.2702 31.5372 27.9909 29.0325L26.0689 28.4795ZM23.3295 34.1209C22.1902 35.5811 20.8498 36.6547 19.3066 37.3632L20.1412 39.1808C21.9955 38.3293 23.5844 37.0455 24.9064 35.3511L23.3295 34.1209ZM19.3108 37.3613C17.7671 38.0616 16.089 38.416 14.2639 38.416V40.416C16.3562 40.416 18.3181 40.0078 20.137 39.1827L19.3108 37.3613ZM14.2639 38.416C12.4389 38.416 10.7608 38.0616 9.21703 37.3613L8.39084 39.1827C10.2098 40.0078 12.1716 40.416 14.2639 40.416V38.416ZM9.22837 37.3665C7.71919 36.6591 6.39297 35.5853 5.25036 34.1209L3.67352 35.3511C4.99223 37.0413 6.56068 38.3249 8.3795 39.1775L9.22837 37.3665ZM5.25036 34.1209C4.11547 32.6663 3.20354 30.7959 2.53694 28.4795L0.614937 29.0325C1.335 31.5348 2.34707 33.651 3.67352 35.3511L5.25036 34.1209ZM2.53746 28.4813C1.87594 26.1659 1.53594 23.4111 1.53594 20.202H-0.464063C-0.464063 23.5449 -0.110728 26.4927 0.614413 29.0307L2.53746 28.4813ZM1.53594 20.202C1.53594 16.9747 1.87611 14.2209 2.53694 11.9245L0.614937 11.3715C-0.110903 13.8937 -0.464063 16.8426 -0.464063 20.202H1.53594ZM2.53694 11.9245C3.20354 9.6081 4.11547 7.73771 5.25036 6.28314L3.67352 5.05286C2.34707 6.75296 1.335 8.86923 0.614937 11.3715L2.53694 11.9245ZM5.25036 6.28314C6.39179 4.82017 7.71549 3.7569 9.22059 3.06706L8.38728 1.24893C6.56438 2.08443 4.99342 3.36116 3.67352 5.05286L5.25036 6.28314ZM9.22477 3.06514C10.7668 2.34976 12.4422 1.988 14.2639 1.988V-0.0120001C12.1683 -0.0120001 10.2037 0.406239 8.3831 1.25086L9.22477 3.06514ZM14.2639 1.988C16.0857 1.988 17.7611 2.34976 19.3031 3.06514L20.1448 1.25086C18.3241 0.406239 16.3595 -0.0120001 14.2639 -0.0120001V1.988ZM19.3143 3.07027C20.8535 3.7613 22.1914 4.82441 23.3295 6.28314L24.9064 5.05286C23.5832 3.35692 21.9917 2.08003 20.1335 1.24573L19.3143 3.07027ZM23.3337 6.28848C24.4837 7.74199 25.403 9.61049 26.0689 11.9245L27.9909 11.3715C27.2702 8.86684 26.2481 6.74867 24.9022 5.04752L23.3337 6.28848ZM26.0708 11.9309C26.7475 14.225 27.0959 16.9765 27.0959 20.202H29.0959C29.0959 16.8408 28.7338 13.8897 27.9891 11.3651L26.0708 11.9309ZM22.4659 20.202C22.4659 17.4392 22.2642 15.1065 21.8439 13.2241L19.892 13.6599C20.269 15.3482 20.4659 17.5221 20.4659 20.202H22.4659ZM21.8439 13.2241C21.4304 11.3723 20.859 9.82893 20.0985 8.63934L18.4134 9.71666C19.0049 10.6417 19.5081 11.9411 19.892 13.6599L21.8439 13.2241ZM20.1047 8.64925C19.3749 7.47765 18.4825 6.58574 17.4007 6.06647L16.5352 7.86952C17.1867 8.18225 17.8197 8.76368 18.4072 9.70675L20.1047 8.64925ZM17.4152 6.07357C16.4147 5.57333 15.3607 5.318 14.2639 5.318V7.318C15.0391 7.318 15.7879 7.49599 16.5207 7.86242L17.4152 6.07357ZM14.2639 5.318C13.1815 5.318 12.1364 5.57471 11.1387 6.07357L12.0332 7.86242C12.7688 7.49461 13.509 7.318 14.2639 7.318V5.318ZM11.1461 6.06993C10.0831 6.5906 9.20214 7.48225 8.47516 8.64925L10.1727 9.70675C10.7631 8.75908 11.3902 8.1774 12.0258 7.86606L11.1461 6.06993ZM8.47516 8.64925C7.73596 9.83585 7.17478 11.3754 6.76197 13.2241L8.7139 13.6599C9.09842 11.9379 9.59458 10.6348 10.1727 9.70675L8.47516 8.64925ZM6.76 13.2331C6.35875 15.1117 6.16594 17.4411 6.16594 20.202H8.16594C8.16594 17.5202 8.35446 15.343 8.71588 13.6509L6.76 13.2331ZM6.16594 20.202C6.16594 22.9629 6.35875 25.2923 6.76 27.1709L8.71588 26.7531C8.35446 25.061 8.16594 22.8838 8.16594 20.202H6.16594ZM6.76197 27.1799C7.17478 29.0286 7.73596 30.5681 8.47516 31.7547L10.1727 30.6973C9.59458 29.7692 9.09842 28.4661 8.7139 26.7441L6.76197 27.1799ZM8.47516 31.7547C9.20114 32.9201 10.0778 33.8152 11.1315 34.3528L12.0404 32.5712C11.3954 32.2422 10.7641 31.6465 10.1727 30.6973L8.47516 31.7547ZM11.1532 34.3635C12.1485 34.8413 13.1885 35.086 14.2639 35.086V33.086C13.5021 33.086 12.7567 32.9147 12.0187 32.5605L11.1532 34.3635ZM14.2639 35.086C15.3539 35.086 16.4027 34.8425 17.4007 34.3635L16.5352 32.5605C15.7998 32.9135 15.046 33.086 14.2639 33.086V35.086ZM17.4152 34.3564C18.4878 33.8201 19.3759 32.9247 20.1047 31.7547L18.4072 30.6973C17.8186 31.642 17.1814 32.2372 16.5207 32.5676L17.4152 34.3564ZM20.0985 31.7647C20.859 30.5751 21.4304 29.0317 21.8439 27.1799L19.892 26.7441C19.5081 28.4629 19.0049 29.7623 18.4134 30.6873L20.0985 31.7647ZM21.8439 27.1799C22.2642 25.2975 22.4659 22.9648 22.4659 20.202H20.4659C20.4659 22.8819 20.269 25.0558 19.892 26.7441L21.8439 27.1799ZM54.43 6.37L53.7335 5.65242L53.7282 5.65761L53.7229 5.66289L54.43 6.37ZM41.196 7.228V6.228H40.3535L40.2105 7.05831L41.196 7.228ZM39.844 15.08L38.8585 14.9103L38.6102 16.3524L40.044 16.0598L39.844 15.08ZM49.698 15.444L49.3303 16.374L49.334 16.3754L49.698 15.444ZM55.808 21.554L54.8702 21.9013L54.8717 21.9051L55.808 21.554ZM55.522 31.512L54.6038 31.1157L54.6004 31.1239L55.522 31.512ZM52.61 35.75L53.2913 36.4821L53.2966 36.477L52.61 35.75ZM48.164 38.454L47.8139 37.5173L47.8108 37.5185L48.164 38.454ZM39.246 39.052L39.4697 38.0773L39.246 39.052ZM36.256 38.09L35.8435 39.001L35.8538 39.0056L35.8641 39.01L36.256 38.09ZM33.682 36.686L33.1147 37.5095L33.1251 37.5167L33.1357 37.5236L33.682 36.686ZM31.576 34.996L30.7659 34.4097L30.2514 35.1205L30.8894 35.723L31.576 34.996ZM33.552 32.266L34.3621 32.8524L34.369 32.8427L33.552 32.266ZM36.516 31.798L35.9769 32.6403L35.9844 32.645L35.9919 32.6497L36.516 31.798ZM38.076 32.708L37.5882 33.5809L38.076 32.708ZM40.13 33.618L40.465 32.6758L40.13 33.618ZM46.084 33.462L45.6944 32.541H45.6944L46.084 33.462ZM48.32 31.876L47.5674 31.2175L47.5662 31.2189L48.32 31.876ZM49.672 29.432L48.7215 29.1209L48.7182 29.1317L49.672 29.432ZM48.346 21.554L47.6441 22.2663L47.6494 22.2715L47.6548 22.2766L48.346 21.554ZM37.634 20.8L37.3593 21.7615L37.6686 21.8499L37.9715 21.7413L37.634 20.8ZM33.63 19.656L32.6443 19.4875L32.4932 20.3712L33.3553 20.6175L33.63 19.656ZM36.75 1.404V0.403997H35.9064L35.7643 1.2355L36.75 1.404ZM55.314 1.404H56.314V0.403997H55.314V1.404ZM54.314 4.134C54.314 4.8175 54.1049 5.29193 53.7335 5.65242L55.1265 7.08758C55.9337 6.30406 56.314 5.28783 56.314 4.134H54.314ZM53.7229 5.66289C53.4308 5.95494 52.7989 6.228 51.544 6.228V8.228C52.9931 8.228 54.2852 7.92906 55.1371 7.0771L53.7229 5.66289ZM51.544 6.228H41.196V8.228H51.544V6.228ZM40.2105 7.05831L38.8585 14.9103L40.8295 15.2497L42.1815 7.39769L40.2105 7.05831ZM40.044 16.0598C41.6915 15.7236 43.1746 15.56 44.498 15.56V13.56C43.0134 13.56 41.3938 13.7431 39.644 14.1002L40.044 16.0598ZM44.498 15.56C46.3765 15.56 47.9805 15.8403 49.3303 16.374L50.0657 14.514C48.4342 13.869 46.5715 13.56 44.498 13.56V15.56ZM49.334 16.3754C50.7253 16.9191 51.8675 17.6602 52.781 18.5891L54.207 17.1869C53.0752 16.0358 51.6867 15.1476 50.062 14.5126L49.334 16.3754ZM52.781 18.5891C53.7019 19.5257 54.398 20.6262 54.8703 21.9013L56.7458 21.2067C56.178 19.6738 55.3314 18.3303 54.207 17.1869L52.781 18.5891ZM54.8717 21.9051C55.346 23.17 55.588 24.5493 55.588 26.052H57.588C57.588 24.3307 57.31 22.7114 56.7443 21.2029L54.8717 21.9051ZM55.588 26.052C55.588 27.9243 55.2548 29.6075 54.6039 31.1157L56.4401 31.9083C57.2105 30.1232 57.588 28.1664 57.588 26.052H55.588ZM54.6004 31.1239C53.9587 32.6479 53.0662 33.9437 51.9234 35.023L53.2966 36.477C54.6498 35.199 55.6986 33.6695 56.4436 31.9001L54.6004 31.1239ZM51.9288 35.0179C50.7837 36.0835 49.4164 36.9184 47.8139 37.5173L48.5141 39.3907C50.3436 38.707 51.9403 37.7391 53.2912 36.4821L51.9288 35.0179ZM47.8108 37.5185C46.2365 38.1128 44.5029 38.416 42.6 38.416V40.416C44.7184 40.416 46.6942 40.0778 48.5172 39.3895L47.8108 37.5185ZM42.6 38.416C41.4902 38.416 40.4476 38.3018 39.4697 38.0773L39.0223 40.0267C40.159 40.2875 41.3525 40.416 42.6 40.416V38.416ZM39.4697 38.0773C38.4661 37.847 37.5261 37.544 36.6479 37.17L35.8641 39.01C36.8579 39.4333 37.9112 39.7716 39.0223 40.0267L39.4697 38.0773ZM36.6685 37.179C35.7935 36.7828 34.9805 36.339 34.2283 35.8484L33.1357 37.5236C33.9782 38.073 34.8812 38.5652 35.8435 39.001L36.6685 37.179ZM34.2493 35.8625C33.5072 35.3513 32.8458 34.8198 32.2626 34.269L30.8894 35.723C31.5542 36.3509 32.2968 36.9461 33.1147 37.5095L34.2493 35.8625ZM32.3861 35.5823L34.3621 32.8523L32.7419 31.6797L30.7659 34.4097L32.3861 35.5823ZM34.369 32.8427C34.6066 32.5061 34.8629 32.382 35.216 32.382V30.382C34.1825 30.382 33.3294 30.8473 32.735 31.6893L34.369 32.8427ZM35.216 32.382C35.425 32.382 35.674 32.4464 35.9769 32.6403L37.0551 30.9557C36.4914 30.595 35.8737 30.382 35.216 30.382V32.382ZM35.9919 32.6497C36.4572 32.936 36.9898 33.2465 37.5882 33.5809L38.5638 31.8351C37.9836 31.5108 37.4761 31.2147 37.0401 30.9463L35.9919 32.6497ZM37.5882 33.5809C38.2359 33.9429 38.9735 34.2681 39.795 34.5602L40.465 32.6758C39.7265 32.4132 39.0948 32.1318 38.5638 31.8351L37.5882 33.5809ZM39.795 34.5602C40.7122 34.8863 41.7769 35.034 42.964 35.034V33.034C41.9325 33.034 41.1078 32.9043 40.465 32.6758L39.795 34.5602ZM42.964 35.034C44.2498 35.034 45.4266 34.826 46.4736 34.383L45.6944 32.541C44.9388 32.8607 44.0356 33.034 42.964 33.034V35.034ZM46.4736 34.383C47.5018 33.948 48.3758 33.3337 49.0738 32.5331L47.5662 31.2189C47.0855 31.7703 46.4688 32.2134 45.6944 32.541L46.4736 34.383ZM49.0726 32.5345C49.7763 31.7303 50.2924 30.7916 50.6259 29.7323L48.7182 29.1317C48.4623 29.9444 48.0771 30.635 47.5674 31.2175L49.0726 32.5345ZM50.6224 29.743C50.9705 28.6793 51.14 27.5419 51.14 26.338H49.14C49.14 27.3528 48.9975 28.2781 48.7216 29.121L50.6224 29.743ZM51.14 26.338C51.14 24.0885 50.4751 22.2068 49.0372 20.8314L47.6548 22.2766C48.6089 23.1892 49.14 24.4969 49.14 26.338H51.14ZM49.0479 20.8417C47.6188 19.4336 45.5832 18.812 43.12 18.812V20.812C45.2675 20.812 46.7159 21.3517 47.6441 22.2663L49.0479 20.8417ZM43.12 18.812C41.1769 18.812 39.2343 19.164 37.2965 19.8587L37.9715 21.7413C39.7084 21.1187 41.4231 20.812 43.12 20.812V18.812ZM37.9087 19.8385L33.9047 18.6945L33.3553 20.6175L37.3593 21.7615L37.9087 19.8385ZM34.6157 19.8245L37.7357 1.57249L35.7643 1.2355L32.6443 19.4875L34.6157 19.8245ZM36.75 2.404H55.314V0.403997H36.75V2.404ZM54.314 1.404V4.134H56.314V1.404H54.314Z" fill="#E4E4E4"/>
</svg>
