<svg width="59" height="40" viewBox="0 0 59 40" fill="none" xmlns="http://www.w3.org/2000/svg">
<path d="M27.0299 28.756L26.0702 28.4749L26.0689 28.4795L27.0299 28.756ZM24.1179 34.736L23.3337 34.1155L23.3295 34.1209L24.1179 34.736ZM19.7239 38.272L20.137 39.1827L20.1412 39.1808L19.7239 38.272ZM8.80394 38.272L8.37947 39.1775L8.39084 39.1827L8.80394 38.272ZM4.46194 34.736L3.67352 35.3511H3.67352L4.46194 34.736ZM1.57594 28.756L0.614411 29.0307L0.614937 29.0325L1.57594 28.756ZM1.57594 11.648L2.53694 11.9245L1.57594 11.648ZM4.46194 5.668L3.67352 5.05286L4.46194 5.668ZM8.80394 2.158L9.2206 3.06707L9.22477 3.06514L8.80394 2.158ZM19.7239 2.158L19.3031 3.0652L19.3143 3.07027L19.7239 2.158ZM24.1179 5.668L23.3295 6.28315L23.3337 6.28848L24.1179 5.668ZM27.0299 11.648L26.0689 11.9246L26.0708 11.9309L27.0299 11.648ZM20.8679 13.442L19.892 13.6599L20.8679 13.442ZM19.2559 9.178L18.4071 9.70678L18.4134 9.71666L19.2559 9.178ZM16.9679 6.968L16.5207 7.86242L16.5279 7.86603L16.5352 7.86952L16.9679 6.968ZM11.5859 6.968L12.0258 7.86609L12.0332 7.86242L11.5859 6.968ZM9.32394 9.178L8.47516 8.64925L9.32394 9.178ZM7.73794 13.442L6.76193 13.2241L6.76 13.2331L7.73794 13.442ZM7.73794 26.962L6.75995 27.1709L6.76197 27.1799L7.73794 26.962ZM9.32394 31.226L8.47516 31.7547L9.32394 31.226ZM11.5859 33.462L11.1315 34.3528L11.1423 34.3583L11.1532 34.3635L11.5859 33.462ZM16.9679 33.462L17.4007 34.3635L17.4079 34.36L17.4152 34.3564L16.9679 33.462ZM19.2559 31.226L18.4134 30.6873L18.4072 30.6973L19.2559 31.226ZM27.0959 20.202C27.0959 23.4093 26.7476 26.1619 26.0702 28.4749L27.9896 29.0371C28.7336 26.4968 29.0959 23.5467 29.0959 20.202H27.0959ZM26.0689 28.4795C25.403 30.7935 24.4837 32.662 23.3337 34.1155L24.9022 35.3565C26.2481 33.6553 27.2702 31.5372 27.9909 29.0325L26.0689 28.4795ZM23.3295 34.1209C22.1902 35.5811 20.8498 36.6547 19.3066 37.3632L20.1412 39.1808C21.9955 38.3293 23.5844 37.0455 24.9064 35.3511L23.3295 34.1209ZM19.3108 37.3613C17.7671 38.0616 16.089 38.416 14.2639 38.416V40.416C16.3562 40.416 18.3181 40.0078 20.137 39.1827L19.3108 37.3613ZM14.2639 38.416C12.4389 38.416 10.7608 38.0616 9.21703 37.3613L8.39084 39.1827C10.2098 40.0078 12.1716 40.416 14.2639 40.416V38.416ZM9.22837 37.3665C7.71919 36.6591 6.39297 35.5853 5.25036 34.1209L3.67352 35.3511C4.99223 37.0413 6.56068 38.3249 8.3795 39.1775L9.22837 37.3665ZM5.25036 34.1209C4.11547 32.6663 3.20354 30.7959 2.53694 28.4795L0.614937 29.0325C1.335 31.5348 2.34707 33.651 3.67352 35.3511L5.25036 34.1209ZM2.53746 28.4813C1.87594 26.1659 1.53594 23.4111 1.53594 20.202H-0.464063C-0.464063 23.5449 -0.110728 26.4927 0.614413 29.0307L2.53746 28.4813ZM1.53594 20.202C1.53594 16.9747 1.87611 14.2209 2.53694 11.9245L0.614937 11.3715C-0.110903 13.8937 -0.464063 16.8426 -0.464063 20.202H1.53594ZM2.53694 11.9245C3.20354 9.6081 4.11547 7.73771 5.25036 6.28314L3.67352 5.05286C2.34707 6.75296 1.335 8.86923 0.614937 11.3715L2.53694 11.9245ZM5.25036 6.28314C6.39179 4.82017 7.71549 3.7569 9.22059 3.06706L8.38728 1.24893C6.56438 2.08443 4.99342 3.36116 3.67352 5.05286L5.25036 6.28314ZM9.22477 3.06514C10.7668 2.34976 12.4422 1.988 14.2639 1.988V-0.0120001C12.1683 -0.0120001 10.2037 0.406239 8.3831 1.25086L9.22477 3.06514ZM14.2639 1.988C16.0857 1.988 17.7611 2.34976 19.3031 3.06514L20.1448 1.25086C18.3241 0.406239 16.3595 -0.0120001 14.2639 -0.0120001V1.988ZM19.3143 3.07027C20.8535 3.7613 22.1914 4.82441 23.3295 6.28314L24.9064 5.05286C23.5832 3.35692 21.9917 2.08003 20.1335 1.24573L19.3143 3.07027ZM23.3337 6.28848C24.4837 7.74199 25.403 9.61049 26.0689 11.9245L27.9909 11.3715C27.2702 8.86684 26.2481 6.74867 24.9022 5.04752L23.3337 6.28848ZM26.0708 11.9309C26.7475 14.225 27.0959 16.9765 27.0959 20.202H29.0959C29.0959 16.8408 28.7338 13.8897 27.9891 11.3651L26.0708 11.9309ZM22.4659 20.202C22.4659 17.4392 22.2642 15.1065 21.8439 13.2241L19.892 13.6599C20.269 15.3482 20.4659 17.5221 20.4659 20.202H22.4659ZM21.8439 13.2241C21.4304 11.3723 20.859 9.82893 20.0985 8.63934L18.4134 9.71666C19.0049 10.6417 19.5081 11.9411 19.892 13.6599L21.8439 13.2241ZM20.1047 8.64925C19.3749 7.47765 18.4825 6.58574 17.4007 6.06647L16.5352 7.86952C17.1867 8.18225 17.8197 8.76368 18.4072 9.70675L20.1047 8.64925ZM17.4152 6.07357C16.4147 5.57333 15.3607 5.318 14.2639 5.318V7.318C15.0391 7.318 15.7879 7.49599 16.5207 7.86242L17.4152 6.07357ZM14.2639 5.318C13.1815 5.318 12.1364 5.57471 11.1387 6.07357L12.0332 7.86242C12.7688 7.49461 13.509 7.318 14.2639 7.318V5.318ZM11.1461 6.06993C10.0831 6.5906 9.20214 7.48225 8.47516 8.64925L10.1727 9.70675C10.7631 8.75908 11.3902 8.1774 12.0258 7.86606L11.1461 6.06993ZM8.47516 8.64925C7.73596 9.83585 7.17478 11.3754 6.76197 13.2241L8.7139 13.6599C9.09842 11.9379 9.59458 10.6348 10.1727 9.70675L8.47516 8.64925ZM6.76 13.2331C6.35875 15.1117 6.16594 17.4411 6.16594 20.202H8.16594C8.16594 17.5202 8.35446 15.343 8.71588 13.6509L6.76 13.2331ZM6.16594 20.202C6.16594 22.9629 6.35875 25.2923 6.76 27.1709L8.71588 26.7531C8.35446 25.061 8.16594 22.8838 8.16594 20.202H6.16594ZM6.76197 27.1799C7.17478 29.0286 7.73596 30.5681 8.47516 31.7547L10.1727 30.6973C9.59458 29.7692 9.09842 28.4661 8.7139 26.7441L6.76197 27.1799ZM8.47516 31.7547C9.20114 32.9201 10.0778 33.8152 11.1315 34.3528L12.0404 32.5712C11.3954 32.2422 10.7641 31.6465 10.1727 30.6973L8.47516 31.7547ZM11.1532 34.3635C12.1485 34.8413 13.1885 35.086 14.2639 35.086V33.086C13.5021 33.086 12.7567 32.9147 12.0187 32.5605L11.1532 34.3635ZM14.2639 35.086C15.3539 35.086 16.4027 34.8425 17.4007 34.3635L16.5352 32.5605C15.7998 32.9135 15.046 33.086 14.2639 33.086V35.086ZM17.4152 34.3564C18.4878 33.8201 19.3759 32.9247 20.1047 31.7547L18.4072 30.6973C17.8186 31.642 17.1814 32.2372 16.5207 32.5676L17.4152 34.3564ZM20.0985 31.7647C20.859 30.5751 21.4304 29.0317 21.8439 27.1799L19.892 26.7441C19.5081 28.4629 19.0049 29.7623 18.4134 30.6873L20.0985 31.7647ZM21.8439 27.1799C22.2642 25.2975 22.4659 22.9648 22.4659 20.202H20.4659C20.4659 22.8819 20.269 25.0558 19.892 26.7441L21.8439 27.1799ZM51.154 16.224L50.8231 17.1677L50.8269 17.169L51.154 16.224ZM54.716 18.356L54.0341 19.0875L54.0408 19.0937L54.716 18.356ZM57.186 21.866L58.0998 21.4599L57.186 21.866ZM57.16 31.72L58.0818 32.1076L58.0834 32.1039L57.16 31.72ZM50.244 38.428L49.8726 37.4995L49.8692 37.5009L50.244 38.428ZM39.428 38.454L39.8011 37.5262L39.428 38.454ZM35.346 35.776L34.6282 36.4723L34.6335 36.4777L35.346 35.776ZM32.746 31.616L31.8055 31.9562L31.8101 31.9682L32.746 31.616ZM32.928 20.774L31.996 20.4115L31.9942 20.4162L32.928 20.774ZM36.282 14.95L37.082 15.55L37.0839 15.5475L36.282 14.95ZM45.252 2.912L44.452 2.312L44.4501 2.3145L45.252 2.912ZM46.604 1.846L46.1671 0.946433L46.1568 0.951571L46.604 1.846ZM54.404 1.404L55.1784 2.03675L56.5125 0.403997H54.404V1.404ZM43.25 15.054L44.0219 15.6897L44.0244 15.6868L43.25 15.054ZM42.548 15.886L41.7923 15.2311L41.7794 15.2459L41.7671 15.2613L42.548 15.886ZM41.924 16.692L41.124 16.092L42.3712 17.5864L41.924 16.692ZM44.264 15.834L44.0261 14.8627L44.0215 14.8639L44.264 15.834ZM38.44 30.056L37.4876 30.3608L37.4913 30.3723L37.4952 30.3838L38.44 30.056ZM39.714 32.24L38.976 32.9148L38.9811 32.9204L38.9864 32.926L39.714 32.24ZM41.82 33.67L41.4354 34.5931L41.4436 34.5965L41.452 34.5998L41.82 33.67ZM47.514 33.644L47.1426 32.7155L47.1361 32.7182L47.514 33.644ZM49.724 32.188L49.0168 31.4808L49.007 31.4909L49.724 32.188ZM51.18 30.004L52.1031 30.3886L52.1059 30.3819L51.18 30.004ZM51.206 24.362L50.2712 24.7172L50.2736 24.7235L51.206 24.362ZM49.802 22.178L49.0949 22.8851L49.1 22.8902L49.1052 22.8953L49.802 22.178ZM47.618 20.8L47.2732 21.7387V21.7387L47.618 20.8ZM42.028 20.852L42.4126 21.7751L42.028 20.852ZM39.87 22.308L39.153 21.6109L39.1527 21.6112L39.87 22.308ZM38.492 24.492L37.5596 24.1304L37.5557 24.1409L38.492 24.492ZM47.02 16.522C48.3292 16.522 49.5953 16.7371 50.8231 17.1677L51.4849 15.2803C50.0434 14.7749 48.5535 14.522 47.02 14.522V16.522ZM50.8269 17.169C52.0502 17.5924 53.1159 18.2315 54.0341 19.0875L55.3979 17.6245C54.2707 16.5738 52.9618 15.7916 51.4811 15.279L50.8269 17.169ZM54.0408 19.0937C54.9515 19.9272 55.698 20.9802 56.2722 22.2721L58.0998 21.4599C57.426 19.9438 56.5258 18.6568 55.3912 17.6183L54.0408 19.0937ZM56.2722 22.2721C56.8284 23.5235 57.122 25.018 57.122 26.78H59.122C59.122 24.798 58.7916 23.0165 58.0998 21.4599L56.2722 22.2721ZM57.122 26.78C57.122 28.4053 56.825 29.9209 56.2366 31.3361L58.0834 32.1039C58.7777 30.4338 59.122 28.656 59.122 26.78H57.122ZM56.2382 31.3324C55.6472 32.7379 54.82 33.9617 53.7542 35.0116L55.1578 36.4364C56.4146 35.1983 57.3901 33.7528 58.0818 32.1076L56.2382 31.3324ZM53.7542 35.0116C52.6956 36.0544 51.4068 36.8858 49.8726 37.4995L50.6154 39.3565C52.3745 38.6528 53.8937 37.6816 55.1578 36.4364L53.7542 35.0116ZM49.8692 37.5009C48.3729 38.1058 46.6995 38.416 44.836 38.416V40.416C46.9245 40.416 48.8565 40.0675 50.6188 39.3551L49.8692 37.5009ZM44.836 38.416C42.9318 38.416 41.2588 38.1125 39.8011 37.5262L39.0549 39.3818C40.7865 40.0782 42.7189 40.416 44.836 40.416V38.416ZM39.8011 37.5262C38.3248 36.9325 37.0821 36.1137 36.0585 35.0743L34.6335 36.4777C35.8632 37.7263 37.3419 38.6929 39.0549 39.3818L39.8011 37.5262ZM36.0637 35.0797C35.0387 34.0231 34.2434 32.7557 33.6819 31.2638L31.8101 31.9682C32.4619 33.7003 33.4 35.2062 34.6283 36.4723L36.0637 35.0797ZM33.6864 31.2759C33.1416 29.7698 32.862 28.0841 32.862 26.208H30.862C30.862 28.2839 31.1717 30.2036 31.8056 31.9561L33.6864 31.2759ZM32.862 26.208C32.862 24.5765 33.1895 22.8863 33.8618 21.1318L31.9942 20.4162C31.2451 22.3711 30.862 24.3035 30.862 26.208H32.862ZM33.86 21.1364C34.548 19.3674 35.6156 17.5053 37.082 15.55L35.482 14.35C33.9324 16.4161 32.764 18.4366 31.996 20.4116L33.86 21.1364ZM37.0839 15.5475L46.0539 3.5095L44.4501 2.3145L35.4801 14.3525L37.0839 15.5475ZM46.052 3.512C46.2493 3.24887 46.5647 2.9837 47.0512 2.74043L46.1568 0.951571C45.4647 1.29763 44.8787 1.74313 44.452 2.312L46.052 3.512ZM47.0409 2.74551C47.4916 2.52659 48.0317 2.404 48.684 2.404V0.403997C47.7763 0.403997 46.9297 0.576077 46.1671 0.946492L47.0409 2.74551ZM48.684 2.404H54.404V0.403997H48.684V2.404ZM53.6297 0.771242L42.4757 14.4212L44.0244 15.6868L55.1784 2.03675L53.6297 0.771242ZM42.4781 14.4183C42.2402 14.7072 42.0116 14.978 41.7923 15.2311L43.3037 16.5409C43.5351 16.2739 43.7745 15.9902 44.0219 15.6897L42.4781 14.4183ZM41.7671 15.2613C41.5524 15.5298 41.338 15.8067 41.124 16.092L42.724 17.292C42.926 17.0227 43.1276 16.7622 43.3289 16.5107L41.7671 15.2613ZM42.3712 17.5864C43.0306 17.2568 43.7415 16.9954 44.5065 16.8041L44.0215 14.8639C43.1225 15.0886 42.2734 15.3992 41.4768 15.7976L42.3712 17.5864ZM44.5019 16.8053C45.264 16.6186 46.102 16.522 47.02 16.522V14.522C45.962 14.522 44.9626 14.6334 44.0261 14.8627L44.5019 16.8053ZM37.024 27.196C37.024 28.3249 37.1746 29.3827 37.4876 30.3608L39.3924 29.7512C39.1508 28.996 39.024 28.1471 39.024 27.196H37.024ZM37.4952 30.3838C37.8303 31.3495 38.3212 32.1986 38.976 32.9148L40.452 31.5652C39.9974 31.068 39.639 30.4612 39.3848 29.7282L37.4952 30.3838ZM38.9864 32.926C39.6624 33.643 40.4843 34.1968 41.4354 34.5931L42.2046 32.7469C41.4917 32.4499 40.9096 32.0503 40.4416 31.554L38.9864 32.926ZM41.452 34.5998C42.4238 34.9845 43.515 35.164 44.706 35.164V33.164C43.713 33.164 42.8802 33.0142 42.188 32.7402L41.452 34.5998ZM44.706 35.164C45.8434 35.164 46.9096 34.9708 47.8919 34.5698L47.1361 32.7182C46.4198 33.0105 45.614 33.164 44.706 33.164V35.164ZM47.8854 34.5725C48.8726 34.1776 49.7297 33.6167 50.441 32.8851L49.007 31.4909C48.505 32.0073 47.8887 32.4171 47.1426 32.7155L47.8854 34.5725ZM50.4311 32.8951C51.1495 32.1767 51.7073 31.3385 52.1031 30.3886L50.2569 29.6194C49.9594 30.3335 49.5465 30.9513 49.0169 31.4809L50.4311 32.8951ZM52.1059 30.3819C52.5051 29.4036 52.7 28.3555 52.7 27.248H50.7C50.7 28.1165 50.5482 28.9057 50.2542 29.6261L52.1059 30.3819ZM52.7 27.248C52.7 26.0715 52.5197 24.9838 52.1384 24.0005L50.2736 24.7235C50.551 25.4389 50.7 26.2752 50.7 27.248H52.7ZM52.1408 24.0068C51.7646 23.0168 51.22 22.1614 50.4988 21.4607L49.1052 22.8953C49.5973 23.3733 49.9888 23.9739 50.2712 24.7172L52.1408 24.0068ZM50.5091 21.4709C49.7943 20.7561 48.9407 20.2205 47.9628 19.8613L47.2732 21.7387C47.994 22.0035 48.5963 22.3866 49.0949 22.8851L50.5091 21.4709ZM47.9628 19.8613C46.9897 19.5038 45.9351 19.332 44.81 19.332V21.332C45.7302 21.332 46.5477 21.4722 47.2732 21.7387L47.9628 19.8613ZM44.81 19.332C43.673 19.332 42.6126 19.5251 41.6434 19.9289L42.4126 21.7751C43.1074 21.4856 43.9017 21.332 44.81 21.332V19.332ZM41.6434 19.9289C40.691 20.3258 39.8574 20.8864 39.153 21.6109L40.587 23.0051C41.0959 22.4816 41.701 22.0716 42.4126 21.7751L41.6434 19.9289ZM39.1527 21.6112C38.4629 22.3213 37.9337 23.1658 37.5596 24.1305L39.4244 24.8535C39.709 24.1195 40.0984 23.508 40.5873 23.0048L39.1527 21.6112ZM37.5557 24.1409C37.1978 25.0951 37.024 26.1165 37.024 27.196H39.024C39.024 26.3342 39.1622 25.5529 39.4283 24.8431L37.5557 24.1409Z" fill="#E4E4E4"/>
</svg>
