<svg width="32" height="32" viewBox="0 0 32 32" fill="none" xmlns="http://www.w3.org/2000/svg">
<g clip-path="url(#clip0_1201_3790)">
<path d="M1.33333 7.99967H30.6667C31.0203 7.99967 31.3594 7.85919 31.6095 7.60915C31.8595 7.3591 32 7.01996 32 6.66634C32 6.31272 31.8595 5.97358 31.6095 5.72353C31.3594 5.47348 31.0203 5.33301 30.6667 5.33301H1.33333C0.979711 5.33301 0.640573 5.47348 0.390524 5.72353C0.140476 5.97358 0 6.31272 0 6.66634C0 7.01996 0.140476 7.3591 0.390524 7.60915C0.640573 7.85919 0.979711 7.99967 1.33333 7.99967V7.99967Z" fill="currentColor"/>
<path d="M30.6667 12H12.0001C11.6465 12 11.3073 12.1405 11.0573 12.3905C10.8072 12.6406 10.6667 12.9797 10.6667 13.3333C10.6667 13.687 10.8072 14.0261 11.0573 14.2761C11.3073 14.5262 11.6465 14.6667 12.0001 14.6667H30.6667C31.0204 14.6667 31.3595 14.5262 31.6096 14.2761C31.8596 14.0261 32.0001 13.687 32.0001 13.3333C32.0001 12.9797 31.8596 12.6406 31.6096 12.3905C31.3595 12.1405 31.0204 12 30.6667 12Z" fill="currentColor"/>
<path d="M30.6667 25.333H12.0001C11.6465 25.333 11.3073 25.4735 11.0573 25.7235C10.8072 25.9736 10.6667 26.3127 10.6667 26.6663C10.6667 27.02 10.8072 27.3591 11.0573 27.6092C11.3073 27.8592 11.6465 27.9997 12.0001 27.9997H30.6667C31.0204 27.9997 31.3595 27.8592 31.6096 27.6092C31.8596 27.3591 32.0001 27.02 32.0001 26.6663C32.0001 26.3127 31.8596 25.9736 31.6096 25.7235C31.3595 25.4735 31.0204 25.333 30.6667 25.333Z" fill="currentColor"/>
<path d="M30.6667 18.667H1.33333C0.979711 18.667 0.640573 18.8075 0.390524 19.0575C0.140476 19.3076 0 19.6467 0 20.0003C0 20.354 0.140476 20.6931 0.390524 20.9431C0.640573 21.1932 0.979711 21.3337 1.33333 21.3337H30.6667C31.0203 21.3337 31.3594 21.1932 31.6095 20.9431C31.8595 20.6931 32 20.354 32 20.0003C32 19.6467 31.8595 19.3076 31.6095 19.0575C31.3594 18.8075 31.0203 18.667 30.6667 18.667Z" fill="currentColor"/>
</g>
<defs>
<clipPath id="clip0_1201_3790">
<rect width="32" height="32" fill="currentColor"/>
</clipPath>
</defs>
</svg>
