<svg width="12" height="12" viewBox="0 0 12 12" fill="none" xmlns="http://www.w3.org/2000/svg">
<g clip-path="url(#clip0_1272_3184)">
<path d="M11.5566 8.39523C11.8468 8.68627 12.0098 9.08053 12.0098 9.49155C12.0098 9.90258 11.8468 10.2968 11.5566 10.5879L11.0998 11.1138C6.99756 15.0393 -2.98282 5.06168 0.883025 0.946832L1.45897 0.445998C1.75027 0.163801 2.14095 0.00763783 2.54651 0.0112932C2.95206 0.0149486 3.33987 0.178129 3.62603 0.465531C3.64155 0.480556 4.56908 1.68656 4.56908 1.68656C4.84349 1.97632 4.99617 2.36037 4.99561 2.75945C4.99505 3.15852 4.84129 3.54215 4.56607 3.83113L3.98612 4.56035C4.30714 5.34016 4.77905 6.04887 5.37474 6.64578C5.97044 7.24269 6.67818 7.71603 7.45732 8.03863L8.19102 7.45516C8.47943 7.17921 8.86303 7.02493 9.26218 7.02437C9.66134 7.02381 10.0454 7.17701 10.3345 7.45216C10.3345 7.45216 11.541 8.3802 11.5566 8.39523ZM10.8679 9.12344C10.8679 9.12344 9.66945 8.20091 9.65393 8.18588C9.55075 8.08358 9.41134 8.02618 9.26604 8.02618C9.12074 8.02618 8.98133 8.08358 8.87815 8.18588C8.86463 8.1989 7.85447 9.00424 7.85447 9.00424C7.7864 9.05843 7.70538 9.09394 7.61941 9.10729C7.53343 9.12064 7.44547 9.11136 7.36417 9.08037C6.35422 8.70461 5.43687 8.11609 4.6743 7.35471C3.91173 6.59334 3.32177 5.6769 2.94441 4.66752C2.91095 4.58511 2.90005 4.49528 2.91281 4.40726C2.92557 4.31924 2.96154 4.2362 3.01703 4.16669C3.01703 4.16669 3.82235 3.15801 3.83587 3.14499C3.93818 3.04181 3.99558 2.90239 3.99558 2.75709C3.99558 2.61179 3.93818 2.47238 3.83587 2.3692C3.82085 2.35417 2.89833 1.15468 2.89833 1.15468C2.79361 1.06077 2.65694 1.01049 2.51633 1.01412C2.37572 1.01775 2.24183 1.07503 2.14209 1.17421L1.56615 1.67504C-1.25949 5.0722 7.39071 13.2428 10.3671 10.4311L10.8238 9.90474C10.9315 9.80592 10.9964 9.66897 11.0046 9.52305C11.0129 9.37712 10.9638 9.23375 10.8679 9.12344Z" fill="#525252"/>
</g>
<defs>
<clipPath id="clip0_1272_3184">
<rect width="12" height="12" fill="white"/>
</clipPath>
</defs>
</svg>
