<svg width="25" height="25" viewBox="0 0 25 25" fill="none" xmlns="http://www.w3.org/2000/svg">
<path d="M15.9492 12.2384C17.0694 11.4971 17.9209 10.4147 18.3776 9.1515C18.8343 7.88832 18.872 6.5116 18.4849 5.22536C18.0978 3.93912 17.3067 2.8118 16.2287 2.01045C15.1507 1.2091 13.8432 0.776367 12.5 0.776367C11.1568 0.776367 9.84931 1.2091 8.77131 2.01045C7.69332 2.8118 6.90217 3.93912 6.51511 5.22536C6.12805 6.5116 6.16567 7.88832 6.62239 9.1515C7.07911 10.4147 7.93064 11.4971 9.05078 12.2384C6.65787 12.9786 4.56446 14.4648 3.07659 16.4798C1.58872 18.4948 0.784416 20.9329 0.78125 23.4376C0.78125 23.6448 0.86356 23.8435 1.01007 23.9901C1.15659 24.1366 1.3553 24.2189 1.5625 24.2189H23.4375C23.6447 24.2189 23.8434 24.1366 23.9899 23.9901C24.1364 23.8435 24.2188 23.6448 24.2188 23.4376C24.2156 20.9329 23.4113 18.4948 21.9234 16.4798C20.4355 14.4648 18.3421 12.9786 15.9492 12.2384ZM7.8125 7.03138C7.8125 6.10428 8.08742 5.198 8.60249 4.42714C9.11756 3.65629 9.84964 3.05548 10.7062 2.70069C11.5627 2.34591 12.5052 2.25308 13.4145 2.43395C14.3238 2.61482 15.159 3.06126 15.8146 3.71682C16.4701 4.37237 16.9166 5.20761 17.0974 6.11689C17.2783 7.02618 17.1855 7.96868 16.8307 8.82521C16.4759 9.68174 15.8751 10.4138 15.1042 10.9289C14.3334 11.444 13.4271 11.7189 12.5 11.7189C11.2572 11.7176 10.0656 11.2234 9.18681 10.3446C8.308 9.46576 7.81374 8.2742 7.8125 7.03138ZM2.37344 22.6564C2.56898 20.1046 3.7207 17.7207 5.59825 15.9815C7.47579 14.2423 9.94072 13.2761 12.5 13.2761C15.0593 13.2761 17.5242 14.2423 19.4018 15.9815C21.2793 17.7207 22.431 20.1046 22.6266 22.6564H2.37344Z" fill="white"/>
</svg>
