<svg width="57" height="40" viewBox="0 0 57 40" fill="none" xmlns="http://www.w3.org/2000/svg">
<path d="M27.0299 28.756L26.0702 28.4749L26.0689 28.4795L27.0299 28.756ZM24.1179 34.736L23.3337 34.1155L23.3295 34.1209L24.1179 34.736ZM19.7239 38.272L20.137 39.1827L20.1412 39.1808L19.7239 38.272ZM8.80394 38.272L8.37947 39.1775L8.39084 39.1827L8.80394 38.272ZM4.46194 34.736L3.67352 35.3511L3.67352 35.3511L4.46194 34.736ZM1.57594 28.756L0.614412 29.0307L0.614937 29.0325L1.57594 28.756ZM1.57594 11.648L2.53694 11.9245L2.53694 11.9245L1.57594 11.648ZM4.46194 5.668L3.67352 5.05286L3.67352 5.05286L4.46194 5.668ZM8.80394 2.158L9.2206 3.06707L9.22477 3.06514L8.80394 2.158ZM19.7239 2.158L19.3031 3.0652L19.3143 3.07027L19.7239 2.158ZM24.1179 5.668L23.3295 6.28315L23.3337 6.28848L24.1179 5.668ZM27.0299 11.648L26.0689 11.9246L26.0708 11.9309L27.0299 11.648ZM20.8679 13.442L19.892 13.6599L19.892 13.6599L20.8679 13.442ZM19.2559 9.178L18.4071 9.70678L18.4134 9.71666L19.2559 9.178ZM16.9679 6.968L16.5207 7.86242L16.5279 7.86603L16.5352 7.86952L16.9679 6.968ZM11.5859 6.968L12.0258 7.86609L12.0332 7.86242L11.5859 6.968ZM9.32394 9.178L8.47516 8.64925L8.47516 8.64925L9.32394 9.178ZM7.73794 13.442L6.76193 13.2241L6.76 13.2331L7.73794 13.442ZM7.73794 26.962L6.75995 27.1709L6.76197 27.1799L7.73794 26.962ZM9.32394 31.226L8.47516 31.7547L8.47516 31.7547L9.32394 31.226ZM11.5859 33.462L11.1315 34.3528L11.1423 34.3583L11.1532 34.3635L11.5859 33.462ZM16.9679 33.462L17.4007 34.3635L17.4079 34.36L17.4152 34.3564L16.9679 33.462ZM19.2559 31.226L18.4134 30.6873L18.4072 30.6973L19.2559 31.226ZM27.0959 20.202C27.0959 23.4093 26.7476 26.1619 26.0702 28.4749L27.9896 29.0371C28.7336 26.4968 29.0959 23.5467 29.0959 20.202H27.0959ZM26.0689 28.4795C25.403 30.7935 24.4837 32.662 23.3337 34.1155L24.9022 35.3565C26.2481 33.6553 27.2702 31.5372 27.9909 29.0325L26.0689 28.4795ZM23.3295 34.1209C22.1902 35.5811 20.8498 36.6547 19.3066 37.3632L20.1412 39.1808C21.9955 38.3293 23.5844 37.0455 24.9064 35.3511L23.3295 34.1209ZM19.3108 37.3613C17.7671 38.0616 16.089 38.416 14.2639 38.416V40.416C16.3562 40.416 18.3181 40.0078 20.137 39.1827L19.3108 37.3613ZM14.2639 38.416C12.4389 38.416 10.7608 38.0616 9.21703 37.3613L8.39084 39.1827C10.2098 40.0078 12.1716 40.416 14.2639 40.416V38.416ZM9.22837 37.3665C7.71919 36.6591 6.39297 35.5853 5.25036 34.1209L3.67352 35.3511C4.99223 37.0413 6.56068 38.3249 8.3795 39.1775L9.22837 37.3665ZM5.25036 34.1209C4.11547 32.6663 3.20354 30.7959 2.53694 28.4795L0.614937 29.0325C1.335 31.5348 2.34707 33.651 3.67352 35.3511L5.25036 34.1209ZM2.53746 28.4813C1.87594 26.1659 1.53594 23.4111 1.53594 20.202H-0.464063C-0.464063 23.5449 -0.110728 26.4927 0.614413 29.0307L2.53746 28.4813ZM1.53594 20.202C1.53594 16.9747 1.87611 14.2209 2.53694 11.9245L0.614937 11.3715C-0.110903 13.8937 -0.464063 16.8426 -0.464063 20.202H1.53594ZM2.53694 11.9245C3.20354 9.6081 4.11547 7.7377 5.25036 6.28314L3.67352 5.05286C2.34707 6.75296 1.335 8.86923 0.614937 11.3715L2.53694 11.9245ZM5.25036 6.28314C6.39179 4.82017 7.71549 3.7569 9.22059 3.06706L8.38728 1.24893C6.56438 2.08443 4.99342 3.36116 3.67352 5.05286L5.25036 6.28314ZM9.22477 3.06514C10.7668 2.34976 12.4422 1.988 14.2639 1.988V-0.0120003C12.1683 -0.0120003 10.2037 0.406238 8.3831 1.25086L9.22477 3.06514ZM14.2639 1.988C16.0857 1.988 17.7611 2.34976 19.3031 3.06514L20.1448 1.25086C18.3241 0.406238 16.3595 -0.0120003 14.2639 -0.0120003V1.988ZM19.3143 3.07027C20.8535 3.7613 22.1914 4.82441 23.3295 6.28314L24.9064 5.05286C23.5832 3.35692 21.9917 2.08003 20.1335 1.24573L19.3143 3.07027ZM23.3337 6.28848C24.4837 7.74199 25.403 9.61049 26.0689 11.9245L27.9909 11.3715C27.2702 8.86684 26.2481 6.74867 24.9022 5.04752L23.3337 6.28848ZM26.0708 11.9309C26.7475 14.225 27.0959 16.9765 27.0959 20.202H29.0959C29.0959 16.8408 28.7338 13.8897 27.9891 11.3651L26.0708 11.9309ZM22.4659 20.202C22.4659 17.4392 22.2642 15.1065 21.8439 13.2241L19.892 13.6599C20.269 15.3482 20.4659 17.5221 20.4659 20.202H22.4659ZM21.8439 13.2241C21.4304 11.3723 20.859 9.82893 20.0985 8.63934L18.4134 9.71666C19.0049 10.6417 19.5081 11.9411 19.892 13.6599L21.8439 13.2241ZM20.1047 8.64925C19.3749 7.47765 18.4825 6.58575 17.4007 6.06647L16.5352 7.86952C17.1867 8.18225 17.8197 8.76368 18.4072 9.70675L20.1047 8.64925ZM17.4152 6.07357C16.4147 5.57333 15.3607 5.318 14.2639 5.318V7.318C15.0391 7.318 15.7879 7.49599 16.5207 7.86242L17.4152 6.07357ZM14.2639 5.318C13.1815 5.318 12.1364 5.57471 11.1387 6.07357L12.0332 7.86242C12.7688 7.49461 13.509 7.318 14.2639 7.318V5.318ZM11.1461 6.06993C10.0831 6.5906 9.20214 7.48225 8.47516 8.64925L10.1727 9.70675C10.7631 8.75908 11.3902 8.1774 12.0258 7.86606L11.1461 6.06993ZM8.47516 8.64925C7.73596 9.83585 7.17478 11.3754 6.76197 13.2241L8.7139 13.6599C9.09842 11.9379 9.59458 10.6348 10.1727 9.70675L8.47516 8.64925ZM6.76 13.2331C6.35875 15.1117 6.16594 17.4411 6.16594 20.202H8.16594C8.16594 17.5202 8.35446 15.343 8.71588 13.6509L6.76 13.2331ZM6.16594 20.202C6.16594 22.9629 6.35875 25.2923 6.76 27.1709L8.71588 26.7531C8.35446 25.061 8.16594 22.8838 8.16594 20.202H6.16594ZM6.76197 27.1799C7.17478 29.0286 7.73596 30.5681 8.47516 31.7547L10.1727 30.6973C9.59458 29.7692 9.09842 28.4661 8.7139 26.7441L6.76197 27.1799ZM8.47516 31.7547C9.20114 32.9201 10.0778 33.8152 11.1315 34.3528L12.0404 32.5712C11.3954 32.2422 10.7641 31.6465 10.1727 30.6973L8.47516 31.7547ZM11.1532 34.3635C12.1485 34.8413 13.1885 35.086 14.2639 35.086V33.086C13.5021 33.086 12.7567 32.9147 12.0187 32.5605L11.1532 34.3635ZM14.2639 35.086C15.3539 35.086 16.4027 34.8425 17.4007 34.3635L16.5352 32.5605C15.7998 32.9135 15.046 33.086 14.2639 33.086V35.086ZM17.4152 34.3564C18.4878 33.8201 19.3759 32.9247 20.1047 31.7547L18.4072 30.6973C17.8186 31.642 17.1814 32.2372 16.5207 32.5676L17.4152 34.3564ZM20.0985 31.7647C20.859 30.5751 21.4304 29.0317 21.8439 27.1799L19.892 26.7441C19.5081 28.4629 19.0049 29.7623 18.4134 30.6873L20.0985 31.7647ZM21.8439 27.1799C22.2642 25.2975 22.4659 22.9648 22.4659 20.202H20.4659C20.4659 22.8819 20.269 25.0558 19.892 26.7441L21.8439 27.1799ZM56.51 34.19H57.51V33.19H56.51V34.19ZM56.51 39V40H57.51V39H56.51ZM35.71 39H34.71V40H35.71V39ZM35.71 34.19V33.19H34.71V34.19H35.71ZM43.328 34.19V35.19H44.328V34.19H43.328ZM43.406 9.594L44.4044 9.65051L44.5349 7.34591L42.7644 8.82699L43.406 9.594ZM37.998 14.118L38.6119 14.9074L38.626 14.8964L38.6396 14.885L37.998 14.118ZM37.062 14.586L37.2358 15.5708L37.2575 15.567L37.2789 15.5622L37.062 14.586ZM36.204 14.586L36.0079 15.5667L36.0197 15.5689L36.204 14.586ZM35.502 14.326L34.9473 15.1581L34.9722 15.1747L34.9981 15.1898L35.502 14.326ZM35.034 13.884L35.8661 13.3293L35.8544 13.3119L35.8421 13.2949L35.034 13.884ZM33.006 11.102L32.3582 10.3402L31.6513 10.9413L32.1979 11.6911L33.006 11.102ZM44.472 1.352V0.351998H44.1043L43.8242 0.590187L44.472 1.352ZM49.75 1.352H50.75V0.351998H49.75V1.352ZM49.75 34.19H48.75V35.19H49.75V34.19ZM55.51 34.19V39H57.51V34.19H55.51ZM56.51 38H35.71V40H56.51V38ZM36.71 39V34.19H34.71V39H36.71ZM35.71 35.19H43.328V33.19H35.71V35.19ZM44.328 34.19V12.272H42.328V34.19H44.328ZM44.328 12.272C44.328 11.4253 44.3534 10.5515 44.4044 9.65051L42.4076 9.53749C42.3546 10.4738 42.328 11.3854 42.328 12.272H44.328ZM42.7644 8.82699L37.3564 13.351L38.6396 14.885L44.0476 10.361L42.7644 8.82699ZM37.3841 13.3286C37.1619 13.5014 36.9825 13.5793 36.8451 13.6098L37.2789 15.5622C37.7655 15.4541 38.2101 15.2199 38.6119 14.9074L37.3841 13.3286ZM36.8882 13.6012C36.7048 13.6336 36.5403 13.6316 36.3883 13.6031L36.0197 15.5689C36.4223 15.6444 36.8298 15.6424 37.2358 15.5708L36.8882 13.6012ZM36.4001 13.6054C36.2375 13.5729 36.1093 13.5225 36.0059 13.4622L34.9981 15.1898C35.3107 15.3721 35.6505 15.4951 36.0079 15.5666L36.4001 13.6054ZM36.0567 13.4939C35.9239 13.4054 35.8768 13.3454 35.8661 13.3293L34.202 14.4387C34.3992 14.7346 34.6641 14.9692 34.9473 15.1581L36.0567 13.4939ZM35.8421 13.2949L33.8141 10.5129L32.1979 11.6911L34.2259 14.4731L35.8421 13.2949ZM33.6538 11.8638L45.1198 2.11381L43.8242 0.590187L32.3582 10.3402L33.6538 11.8638ZM44.472 2.352H49.75V0.351998H44.472V2.352ZM48.75 1.352V34.19H50.75V1.352H48.75ZM49.75 35.19H56.51V33.19H49.75V35.19Z" fill="#E4E4E4"/>
</svg>
