<svg width="58" height="40" viewBox="0 0 58 40" fill="none" xmlns="http://www.w3.org/2000/svg">
<path d="M27.0299 28.756L26.0702 28.4749L26.0689 28.4795L27.0299 28.756ZM24.1179 34.736L23.3337 34.1155L23.3295 34.1209L24.1179 34.736ZM19.7239 38.272L20.137 39.1827L20.1412 39.1808L19.7239 38.272ZM8.80394 38.272L8.37947 39.1775L8.39084 39.1827L8.80394 38.272ZM4.46194 34.736L3.67352 35.3511H3.67352L4.46194 34.736ZM1.57594 28.756L0.614411 29.0307L0.614937 29.0325L1.57594 28.756ZM1.57594 11.648L2.53694 11.9245L1.57594 11.648ZM4.46194 5.668L3.67352 5.05286L4.46194 5.668ZM8.80394 2.158L9.2206 3.06707L9.22477 3.06514L8.80394 2.158ZM19.7239 2.158L19.3031 3.0652L19.3143 3.07027L19.7239 2.158ZM24.1179 5.668L23.3295 6.28315L23.3337 6.28848L24.1179 5.668ZM27.0299 11.648L26.0689 11.9246L26.0708 11.9309L27.0299 11.648ZM20.8679 13.442L19.892 13.6599L20.8679 13.442ZM19.2559 9.178L18.4071 9.70678L18.4134 9.71666L19.2559 9.178ZM16.9679 6.968L16.5207 7.86242L16.5279 7.86603L16.5352 7.86952L16.9679 6.968ZM11.5859 6.968L12.0258 7.86609L12.0332 7.86242L11.5859 6.968ZM9.32394 9.178L8.47516 8.64925L9.32394 9.178ZM7.73794 13.442L6.76193 13.2241L6.76 13.2331L7.73794 13.442ZM7.73794 26.962L6.75995 27.1709L6.76197 27.1799L7.73794 26.962ZM9.32394 31.226L8.47516 31.7547L9.32394 31.226ZM11.5859 33.462L11.1315 34.3528L11.1423 34.3583L11.1532 34.3635L11.5859 33.462ZM16.9679 33.462L17.4007 34.3635L17.4079 34.36L17.4152 34.3564L16.9679 33.462ZM19.2559 31.226L18.4134 30.6873L18.4072 30.6973L19.2559 31.226ZM27.0959 20.202C27.0959 23.4093 26.7476 26.1619 26.0702 28.4749L27.9896 29.0371C28.7336 26.4968 29.0959 23.5467 29.0959 20.202H27.0959ZM26.0689 28.4795C25.403 30.7935 24.4837 32.662 23.3337 34.1155L24.9022 35.3565C26.2481 33.6553 27.2702 31.5372 27.9909 29.0325L26.0689 28.4795ZM23.3295 34.1209C22.1902 35.5811 20.8498 36.6547 19.3066 37.3632L20.1412 39.1808C21.9955 38.3293 23.5844 37.0455 24.9064 35.3511L23.3295 34.1209ZM19.3108 37.3613C17.7671 38.0616 16.089 38.416 14.2639 38.416V40.416C16.3562 40.416 18.3181 40.0078 20.137 39.1827L19.3108 37.3613ZM14.2639 38.416C12.4389 38.416 10.7608 38.0616 9.21703 37.3613L8.39084 39.1827C10.2098 40.0078 12.1716 40.416 14.2639 40.416V38.416ZM9.22837 37.3665C7.71919 36.6591 6.39297 35.5853 5.25036 34.1209L3.67352 35.3511C4.99223 37.0413 6.56068 38.3249 8.3795 39.1775L9.22837 37.3665ZM5.25036 34.1209C4.11547 32.6663 3.20354 30.7959 2.53694 28.4795L0.614937 29.0325C1.335 31.5348 2.34707 33.651 3.67352 35.3511L5.25036 34.1209ZM2.53746 28.4813C1.87594 26.1659 1.53594 23.4111 1.53594 20.202H-0.464063C-0.464063 23.5449 -0.110728 26.4927 0.614413 29.0307L2.53746 28.4813ZM1.53594 20.202C1.53594 16.9747 1.87611 14.2209 2.53694 11.9245L0.614937 11.3715C-0.110903 13.8937 -0.464063 16.8426 -0.464063 20.202H1.53594ZM2.53694 11.9245C3.20354 9.6081 4.11547 7.73771 5.25036 6.28314L3.67352 5.05286C2.34707 6.75296 1.335 8.86923 0.614937 11.3715L2.53694 11.9245ZM5.25036 6.28314C6.39179 4.82017 7.71549 3.7569 9.22059 3.06706L8.38728 1.24893C6.56438 2.08443 4.99342 3.36116 3.67352 5.05286L5.25036 6.28314ZM9.22477 3.06514C10.7668 2.34976 12.4422 1.988 14.2639 1.988V-0.0120001C12.1683 -0.0120001 10.2037 0.406239 8.3831 1.25086L9.22477 3.06514ZM14.2639 1.988C16.0857 1.988 17.7611 2.34976 19.3031 3.06514L20.1448 1.25086C18.3241 0.406239 16.3595 -0.0120001 14.2639 -0.0120001V1.988ZM19.3143 3.07027C20.8535 3.7613 22.1914 4.82441 23.3295 6.28314L24.9064 5.05286C23.5832 3.35692 21.9917 2.08003 20.1335 1.24573L19.3143 3.07027ZM23.3337 6.28848C24.4837 7.74199 25.403 9.61049 26.0689 11.9245L27.9909 11.3715C27.2702 8.86684 26.2481 6.74867 24.9022 5.04752L23.3337 6.28848ZM26.0708 11.9309C26.7475 14.225 27.0959 16.9765 27.0959 20.202H29.0959C29.0959 16.8408 28.7338 13.8897 27.9891 11.3651L26.0708 11.9309ZM22.4659 20.202C22.4659 17.4392 22.2642 15.1065 21.8439 13.2241L19.892 13.6599C20.269 15.3482 20.4659 17.5221 20.4659 20.202H22.4659ZM21.8439 13.2241C21.4304 11.3723 20.859 9.82893 20.0985 8.63934L18.4134 9.71666C19.0049 10.6417 19.5081 11.9411 19.892 13.6599L21.8439 13.2241ZM20.1047 8.64925C19.3749 7.47765 18.4825 6.58574 17.4007 6.06647L16.5352 7.86952C17.1867 8.18225 17.8197 8.76368 18.4072 9.70675L20.1047 8.64925ZM17.4152 6.07357C16.4147 5.57333 15.3607 5.318 14.2639 5.318V7.318C15.0391 7.318 15.7879 7.49599 16.5207 7.86242L17.4152 6.07357ZM14.2639 5.318C13.1815 5.318 12.1364 5.57471 11.1387 6.07357L12.0332 7.86242C12.7688 7.49461 13.509 7.318 14.2639 7.318V5.318ZM11.1461 6.06993C10.0831 6.5906 9.20214 7.48225 8.47516 8.64925L10.1727 9.70675C10.7631 8.75908 11.3902 8.1774 12.0258 7.86606L11.1461 6.06993ZM8.47516 8.64925C7.73596 9.83585 7.17478 11.3754 6.76197 13.2241L8.7139 13.6599C9.09842 11.9379 9.59458 10.6348 10.1727 9.70675L8.47516 8.64925ZM6.76 13.2331C6.35875 15.1117 6.16594 17.4411 6.16594 20.202H8.16594C8.16594 17.5202 8.35446 15.343 8.71588 13.6509L6.76 13.2331ZM6.16594 20.202C6.16594 22.9629 6.35875 25.2923 6.76 27.1709L8.71588 26.7531C8.35446 25.061 8.16594 22.8838 8.16594 20.202H6.16594ZM6.76197 27.1799C7.17478 29.0286 7.73596 30.5681 8.47516 31.7547L10.1727 30.6973C9.59458 29.7692 9.09842 28.4661 8.7139 26.7441L6.76197 27.1799ZM8.47516 31.7547C9.20114 32.9201 10.0778 33.8152 11.1315 34.3528L12.0404 32.5712C11.3954 32.2422 10.7641 31.6465 10.1727 30.6973L8.47516 31.7547ZM11.1532 34.3635C12.1485 34.8413 13.1885 35.086 14.2639 35.086V33.086C13.5021 33.086 12.7567 32.9147 12.0187 32.5605L11.1532 34.3635ZM14.2639 35.086C15.3539 35.086 16.4027 34.8425 17.4007 34.3635L16.5352 32.5605C15.7998 32.9135 15.046 33.086 14.2639 33.086V35.086ZM17.4152 34.3564C18.4878 33.8201 19.3759 32.9247 20.1047 31.7547L18.4072 30.6973C17.8186 31.642 17.1814 32.2372 16.5207 32.5676L17.4152 34.3564ZM20.0985 31.7647C20.859 30.5751 21.4304 29.0317 21.8439 27.1799L19.892 26.7441C19.5081 28.4629 19.0049 29.7623 18.4134 30.6873L20.0985 31.7647ZM21.8439 27.1799C22.2642 25.2975 22.4659 22.9648 22.4659 20.202H20.4659C20.4659 22.8819 20.269 25.0558 19.892 26.7441L21.8439 27.1799ZM50.01 1.768L49.6701 2.70851L49.6802 2.71204L50.01 1.768ZM56.094 7.306L57.0113 6.90771L56.094 7.306ZM56.328 15.548L55.3849 15.2151L55.3807 15.2276L56.328 15.548ZM54.69 18.928L53.8496 18.3858L53.8435 18.3955L54.69 18.928ZM52.298 22.048L51.5598 21.3734L52.298 22.048ZM49.412 25.116L50.1266 25.8156L50.131 25.811L49.412 25.116ZM40.936 33.774L40.2214 33.0744L37.55 35.8033L41.216 34.734L40.936 33.774ZM43.38 33.228L43.5304 34.2166L43.5409 34.215L43.5513 34.2132L43.38 33.228ZM56.952 33.618L56.2449 34.3251L56.2603 34.3405L56.2763 34.3552L56.952 33.618ZM57.576 39V40H58.576V39H57.576ZM31.784 39H30.784V40H31.784V39ZM32.044 35.516L31.1179 35.1387L31.1118 35.1536L31.1063 35.1687L32.044 35.516ZM32.928 34.216L33.6351 34.9231L33.6359 34.9223L32.928 34.216ZM44.342 22.776L45.0499 23.4823L45.0555 23.4767L44.342 22.776ZM46.89 19.994L46.1328 19.3407L46.1255 19.3494L46.89 19.994ZM48.788 17.368L47.9305 16.8535L47.9267 16.8599L47.923 16.8663L48.788 17.368ZM49.958 14.742L49.0021 14.4479L48.9986 14.4598L49.958 14.742ZM49.984 9.542L49.0476 9.89314L49.0507 9.90098L49.984 9.542ZM48.866 7.8L48.1719 8.51984L48.1719 8.51984L48.866 7.8ZM47.124 6.76L46.7783 7.69834L46.793 7.70374L46.8078 7.70868L47.124 6.76ZM41.066 7.566L40.453 6.77588L40.4464 6.78111L41.066 7.566ZM38.986 10.712L38.0288 10.4223L38.0254 10.4339L38.986 10.712ZM38.128 12.142L38.7162 12.9507L38.7279 12.9422L38.7394 12.9333L38.128 12.142ZM35.814 12.48L35.6398 13.4648L35.6496 13.4664L35.814 12.48ZM32.434 11.882L31.4442 11.7392L31.306 12.698L32.2598 12.8667L32.434 11.882ZM33.942 7.15L34.8178 7.63279L34.8203 7.62807L33.942 7.15ZM36.724 3.744L37.3546 4.52011L37.3559 4.51902L36.724 3.744ZM40.572 1.69L40.8709 2.6443L40.878 2.64203L40.572 1.69ZM45.252 1.988C46.8847 1.988 48.3539 2.23272 49.6701 2.70845L50.3499 0.827545C48.7888 0.263277 47.086 -0.0120001 45.252 -0.0120001V1.988ZM49.6802 2.71204C51.0037 3.17448 52.1136 3.82785 53.0268 4.66367L54.3772 3.18832C53.245 2.15214 51.8936 1.36685 50.3398 0.823963L49.6802 2.71204ZM53.0268 4.66367C53.9421 5.50138 54.6586 6.51109 55.1767 7.70428L57.0113 6.90771C56.3854 5.46624 55.5072 4.22262 54.3772 3.18832L53.0268 4.66367ZM55.1767 7.70428C55.6879 8.88139 55.952 10.2082 55.952 11.7H57.952C57.952 9.96776 57.6441 8.36527 57.0113 6.90771L55.1767 7.70428ZM55.952 11.7C55.952 12.9856 55.7594 14.1545 55.385 15.2152L57.271 15.8808C57.7286 14.5842 57.952 13.1877 57.952 11.7H55.952ZM55.3807 15.2276C55.0092 16.3261 54.4996 17.3785 53.8497 18.3859L55.5303 19.4701C56.267 18.3282 56.8495 17.1273 57.2753 15.8684L55.3807 15.2276ZM53.8435 18.3955C53.2015 19.4162 52.4411 20.409 51.5598 21.3734L53.0362 22.7226C53.9922 21.6763 54.8265 20.5891 55.5365 19.4605L53.8435 18.3955ZM51.5598 21.3734C50.6478 22.3714 49.6922 23.3873 48.693 24.421L50.131 25.811C51.1424 24.7647 52.1109 23.7352 53.0362 22.7226L51.5598 21.3734ZM48.6974 24.4164L40.2214 33.0744L41.6506 34.4736L50.1266 25.8156L48.6974 24.4164ZM41.216 34.734C42.0086 34.5028 42.78 34.3308 43.5304 34.2166L43.2296 32.2394C42.3854 32.3678 41.5274 32.5598 40.656 32.814L41.216 34.734ZM43.5513 34.2132C44.2983 34.0833 45.0034 34.02 45.668 34.02V32.02C44.8766 32.02 44.0564 32.0954 43.2087 32.2428L43.5513 34.2132ZM45.668 34.02H55.314V32.02H45.668V34.02ZM55.314 34.02C55.8068 34.02 56.075 34.1553 56.2449 34.3251L57.6591 32.9109C57.0316 32.2834 56.2078 32.02 55.314 32.02V34.02ZM56.2763 34.3552C56.4565 34.5203 56.576 34.7488 56.576 35.152H58.576C58.576 34.2726 58.2795 33.4783 57.6277 32.8808L56.2763 34.3552ZM56.576 35.152V39H58.576V35.152H56.576ZM57.576 38H31.784V40H57.576V38ZM32.784 39V36.868H30.784V39H32.784ZM32.784 36.868C32.784 36.5697 32.8434 36.2368 32.9818 35.8633L31.1063 35.1687C30.8979 35.7312 30.784 36.2996 30.784 36.868H32.784ZM32.9701 35.8933C33.105 35.5623 33.3198 35.2384 33.6351 34.9231L32.2209 33.5089C31.7389 33.9909 31.3644 34.5337 31.1179 35.1387L32.9701 35.8933ZM33.6359 34.9223L45.0499 23.4823L43.6341 22.0697L32.2201 33.5097L33.6359 34.9223ZM45.0555 23.4767C46.0235 22.491 46.8903 21.545 47.6545 20.6386L46.1255 19.3494C45.399 20.211 44.5672 21.1196 43.6286 22.0753L45.0555 23.4767ZM47.6472 20.6472C48.4439 19.7237 49.1146 18.7981 49.653 17.8697L47.923 16.8663C47.4561 17.6713 46.8614 18.4963 46.1328 19.3408L47.6472 20.6472ZM49.6455 17.8825C50.205 16.95 50.6312 15.9971 50.9174 15.0242L48.9986 14.4598C48.7648 15.2549 48.411 16.0527 47.9305 16.8535L49.6455 17.8825ZM50.9138 15.0361C51.2218 14.035 51.374 12.9909 51.374 11.908H49.374C49.374 12.8011 49.2489 13.6463 49.0022 14.4479L50.9138 15.0361ZM51.374 11.908C51.374 10.9128 51.2307 9.99777 50.9173 9.18302L49.0507 9.90098C49.2573 10.4382 49.374 11.1005 49.374 11.908H51.374ZM50.9203 9.19088C50.6133 8.37201 50.1628 7.66131 49.5601 7.08015L48.1719 8.51984C48.5398 8.87468 48.8347 9.32532 49.0477 9.89312L50.9203 9.19088ZM49.5601 7.08016C48.9614 6.50279 48.2494 6.08105 47.4402 5.81132L46.8078 7.70868C47.3506 7.88961 47.7999 8.1612 48.1719 8.51984L49.5601 7.08016ZM47.4697 5.82166C46.6819 5.53143 45.8166 5.396 44.888 5.396V7.396C45.6234 7.396 46.2487 7.50324 46.7783 7.69834L47.4697 5.82166ZM44.888 5.396C43.1719 5.396 41.6685 5.83283 40.453 6.77591L41.679 8.35608C42.4741 7.73917 43.5188 7.396 44.888 7.396V5.396ZM40.4464 6.78111C39.2829 7.69967 38.481 8.92847 38.0289 10.4223L39.9431 11.0017C40.2884 9.86086 40.8731 8.99233 41.6856 8.35088L40.4464 6.78111ZM38.0254 10.4339C37.8696 10.9722 37.6724 11.2303 37.5166 11.3507L38.7394 12.9333C39.3463 12.4644 39.721 11.7692 39.9466 10.9901L38.0254 10.4339ZM37.5398 11.3333C37.3681 11.4582 37.1034 11.558 36.672 11.558V13.558C37.4193 13.558 38.1253 13.3805 38.7162 12.9507L37.5398 11.3333ZM36.672 11.558C36.4774 11.558 36.2473 11.5384 35.9784 11.4936L35.6496 13.4664C36.0047 13.5256 36.3466 13.558 36.672 13.558V11.558ZM35.9882 11.4953L32.6082 10.8973L32.2598 12.8667L35.6398 13.4647L35.9882 11.4953ZM33.4238 12.0248C33.6696 10.3204 34.14 8.86213 34.8177 7.63278L33.0663 6.66722C32.2533 8.14186 31.7184 9.83828 31.4442 11.7392L33.4238 12.0248ZM34.8203 7.62807C35.509 6.36283 36.3553 5.33202 37.3546 4.52011L36.0934 2.96788C34.874 3.95865 33.8657 5.1985 33.0637 6.67193L34.8203 7.62807ZM37.3559 4.51902C38.3804 3.68372 39.5491 3.05835 40.8709 2.64427L40.2731 0.735723C38.7176 1.22298 37.321 1.96695 36.0921 2.96898L37.3559 4.51902ZM40.878 2.64203C42.2268 2.20849 43.6828 1.988 45.252 1.988V-0.0120001C43.4932 -0.0120001 41.8292 0.235512 40.266 0.737969L40.878 2.64203Z" fill="#E4E4E4"/>
</svg>
