<svg width="58" height="40" viewBox="0 0 58 40" fill="none" xmlns="http://www.w3.org/2000/svg">
<path d="M27.0299 28.756L26.0702 28.4749L26.0689 28.4795L27.0299 28.756ZM24.1179 34.736L23.3337 34.1155L23.3295 34.1209L24.1179 34.736ZM19.7239 38.272L20.137 39.1827L20.1412 39.1808L19.7239 38.272ZM8.80394 38.272L8.37947 39.1775L8.39084 39.1827L8.80394 38.272ZM4.46194 34.736L3.67352 35.3511H3.67352L4.46194 34.736ZM1.57594 28.756L0.614411 29.0307L0.614937 29.0325L1.57594 28.756ZM1.57594 11.648L2.53694 11.9245L1.57594 11.648ZM4.46194 5.668L3.67352 5.05286L4.46194 5.668ZM8.80394 2.158L9.2206 3.06707L9.22477 3.06514L8.80394 2.158ZM19.7239 2.158L19.3031 3.0652L19.3143 3.07027L19.7239 2.158ZM24.1179 5.668L23.3295 6.28315L23.3337 6.28848L24.1179 5.668ZM27.0299 11.648L26.0689 11.9246L26.0708 11.9309L27.0299 11.648ZM20.8679 13.442L19.892 13.6599L20.8679 13.442ZM19.2559 9.178L18.4071 9.70678L18.4134 9.71666L19.2559 9.178ZM16.9679 6.968L16.5207 7.86242L16.5279 7.86603L16.5352 7.86952L16.9679 6.968ZM11.5859 6.968L12.0258 7.86609L12.0332 7.86242L11.5859 6.968ZM9.32394 9.178L8.47516 8.64925L9.32394 9.178ZM7.73794 13.442L6.76193 13.2241L6.76 13.2331L7.73794 13.442ZM7.73794 26.962L6.75995 27.1709L6.76197 27.1799L7.73794 26.962ZM9.32394 31.226L8.47516 31.7547L9.32394 31.226ZM11.5859 33.462L11.1315 34.3528L11.1423 34.3583L11.1532 34.3635L11.5859 33.462ZM16.9679 33.462L17.4007 34.3635L17.4079 34.36L17.4152 34.3564L16.9679 33.462ZM19.2559 31.226L18.4134 30.6873L18.4072 30.6973L19.2559 31.226ZM27.0959 20.202C27.0959 23.4093 26.7476 26.1619 26.0702 28.4749L27.9896 29.0371C28.7336 26.4968 29.0959 23.5467 29.0959 20.202H27.0959ZM26.0689 28.4795C25.403 30.7935 24.4837 32.662 23.3337 34.1155L24.9022 35.3565C26.2481 33.6553 27.2702 31.5372 27.9909 29.0325L26.0689 28.4795ZM23.3295 34.1209C22.1902 35.5811 20.8498 36.6547 19.3066 37.3632L20.1412 39.1808C21.9955 38.3293 23.5844 37.0455 24.9064 35.3511L23.3295 34.1209ZM19.3108 37.3613C17.7671 38.0616 16.089 38.416 14.2639 38.416V40.416C16.3562 40.416 18.3181 40.0078 20.137 39.1827L19.3108 37.3613ZM14.2639 38.416C12.4389 38.416 10.7608 38.0616 9.21703 37.3613L8.39084 39.1827C10.2098 40.0078 12.1716 40.416 14.2639 40.416V38.416ZM9.22837 37.3665C7.71919 36.6591 6.39297 35.5853 5.25036 34.1209L3.67352 35.3511C4.99223 37.0413 6.56068 38.3249 8.3795 39.1775L9.22837 37.3665ZM5.25036 34.1209C4.11547 32.6663 3.20354 30.7959 2.53694 28.4795L0.614937 29.0325C1.335 31.5348 2.34707 33.651 3.67352 35.3511L5.25036 34.1209ZM2.53746 28.4813C1.87594 26.1659 1.53594 23.4111 1.53594 20.202H-0.464063C-0.464063 23.5449 -0.110728 26.4927 0.614413 29.0307L2.53746 28.4813ZM1.53594 20.202C1.53594 16.9747 1.87611 14.2209 2.53694 11.9245L0.614937 11.3715C-0.110903 13.8937 -0.464063 16.8426 -0.464063 20.202H1.53594ZM2.53694 11.9245C3.20354 9.6081 4.11547 7.73771 5.25036 6.28314L3.67352 5.05286C2.34707 6.75296 1.335 8.86923 0.614937 11.3715L2.53694 11.9245ZM5.25036 6.28314C6.39179 4.82017 7.71549 3.7569 9.22059 3.06706L8.38728 1.24893C6.56438 2.08443 4.99342 3.36116 3.67352 5.05286L5.25036 6.28314ZM9.22477 3.06514C10.7668 2.34976 12.4422 1.988 14.2639 1.988V-0.0120001C12.1683 -0.0120001 10.2037 0.406239 8.3831 1.25086L9.22477 3.06514ZM14.2639 1.988C16.0857 1.988 17.7611 2.34976 19.3031 3.06514L20.1448 1.25086C18.3241 0.406239 16.3595 -0.0120001 14.2639 -0.0120001V1.988ZM19.3143 3.07027C20.8535 3.7613 22.1914 4.82441 23.3295 6.28314L24.9064 5.05286C23.5832 3.35692 21.9917 2.08003 20.1335 1.24573L19.3143 3.07027ZM23.3337 6.28848C24.4837 7.74199 25.403 9.61049 26.0689 11.9245L27.9909 11.3715C27.2702 8.86684 26.2481 6.74867 24.9022 5.04752L23.3337 6.28848ZM26.0708 11.9309C26.7475 14.225 27.0959 16.9765 27.0959 20.202H29.0959C29.0959 16.8408 28.7338 13.8897 27.9891 11.3651L26.0708 11.9309ZM22.4659 20.202C22.4659 17.4392 22.2642 15.1065 21.8439 13.2241L19.892 13.6599C20.269 15.3482 20.4659 17.5221 20.4659 20.202H22.4659ZM21.8439 13.2241C21.4304 11.3723 20.859 9.82893 20.0985 8.63934L18.4134 9.71666C19.0049 10.6417 19.5081 11.9411 19.892 13.6599L21.8439 13.2241ZM20.1047 8.64925C19.3749 7.47765 18.4825 6.58574 17.4007 6.06647L16.5352 7.86952C17.1867 8.18225 17.8197 8.76368 18.4072 9.70675L20.1047 8.64925ZM17.4152 6.07357C16.4147 5.57333 15.3607 5.318 14.2639 5.318V7.318C15.0391 7.318 15.7879 7.49599 16.5207 7.86242L17.4152 6.07357ZM14.2639 5.318C13.1815 5.318 12.1364 5.57471 11.1387 6.07357L12.0332 7.86242C12.7688 7.49461 13.509 7.318 14.2639 7.318V5.318ZM11.1461 6.06993C10.0831 6.5906 9.20214 7.48225 8.47516 8.64925L10.1727 9.70675C10.7631 8.75908 11.3902 8.1774 12.0258 7.86606L11.1461 6.06993ZM8.47516 8.64925C7.73596 9.83585 7.17478 11.3754 6.76197 13.2241L8.7139 13.6599C9.09842 11.9379 9.59458 10.6348 10.1727 9.70675L8.47516 8.64925ZM6.76 13.2331C6.35875 15.1117 6.16594 17.4411 6.16594 20.202H8.16594C8.16594 17.5202 8.35446 15.343 8.71588 13.6509L6.76 13.2331ZM6.16594 20.202C6.16594 22.9629 6.35875 25.2923 6.76 27.1709L8.71588 26.7531C8.35446 25.061 8.16594 22.8838 8.16594 20.202H6.16594ZM6.76197 27.1799C7.17478 29.0286 7.73596 30.5681 8.47516 31.7547L10.1727 30.6973C9.59458 29.7692 9.09842 28.4661 8.7139 26.7441L6.76197 27.1799ZM8.47516 31.7547C9.20114 32.9201 10.0778 33.8152 11.1315 34.3528L12.0404 32.5712C11.3954 32.2422 10.7641 31.6465 10.1727 30.6973L8.47516 31.7547ZM11.1532 34.3635C12.1485 34.8413 13.1885 35.086 14.2639 35.086V33.086C13.5021 33.086 12.7567 32.9147 12.0187 32.5605L11.1532 34.3635ZM14.2639 35.086C15.3539 35.086 16.4027 34.8425 17.4007 34.3635L16.5352 32.5605C15.7998 32.9135 15.046 33.086 14.2639 33.086V35.086ZM17.4152 34.3564C18.4878 33.8201 19.3759 32.9247 20.1047 31.7547L18.4072 30.6973C17.8186 31.642 17.1814 32.2372 16.5207 32.5676L17.4152 34.3564ZM20.0985 31.7647C20.859 30.5751 21.4304 29.0317 21.8439 27.1799L19.892 26.7441C19.5081 28.4629 19.0049 29.7623 18.4134 30.6873L20.0985 31.7647ZM21.8439 27.1799C22.2642 25.2975 22.4659 22.9648 22.4659 20.202H20.4659C20.4659 22.8819 20.269 25.0558 19.892 26.7441L21.8439 27.1799ZM50.53 1.742L50.1892 2.68213L50.1962 2.68468L50.2033 2.68712L50.53 1.742ZM54.118 3.796L53.4512 4.54128L53.4586 4.54776L54.118 3.796ZM56.38 6.864L55.465 7.26767L55.4701 7.27881L56.38 6.864ZM56.77 13.858L55.8126 13.569L55.8092 13.5808L56.77 13.858ZM55.6 16.224L54.8074 15.6143L54.8024 15.6208L54.7975 15.6273L55.6 16.224ZM53.728 17.94L53.1962 17.0931L53.1872 17.0988L53.728 17.94ZM51.232 19.11L50.9158 18.1613L47.9908 19.1363L50.9312 20.0637L51.232 19.11ZM56.276 22.36L55.4806 22.966L56.276 22.36ZM56.9 32.812L57.8008 33.2461V33.2461L56.9 32.812ZM54.092 36.452L54.7277 37.224L54.7344 37.2184L54.092 36.452ZM49.984 38.662L49.6773 37.7102L49.6742 37.7112L49.984 38.662ZM40.13 38.766L40.4249 37.8105L40.13 38.766ZM36.464 36.842L35.8315 37.6165L36.464 36.842ZM33.812 33.722L32.9513 34.2311L33.812 33.722ZM31.94 29.458L31.5584 28.5337L30.7048 28.8861L30.9883 29.765L31.94 29.458ZM34.774 28.288L35.1556 29.2124L35.1679 29.2071L34.774 28.288ZM37.452 28.262L36.9701 29.1382L36.979 29.1431L36.988 29.1478L37.452 28.262ZM38.284 29.094L39.1733 28.6366L39.1698 28.63L38.284 29.094ZM39.298 30.888L38.4472 31.4135L38.4527 31.4224L38.4584 31.4313L39.298 30.888ZM40.65 32.474L39.981 33.2173L39.988 33.2236L39.9951 33.2297L40.65 32.474ZM42.47 33.592L42.0789 34.5123L42.0926 34.5182L42.1065 34.5236L42.47 33.592ZM47.852 33.488L48.2436 34.4082L48.2518 34.4047L48.2599 34.401L47.852 33.488ZM49.88 32.084L49.1621 31.3879L49.1566 31.3935L49.1512 31.3993L49.88 32.084ZM51.102 30.186L50.1703 29.8224L50.1657 29.8349L51.102 30.186ZM51.232 25.61L50.2632 25.8578L50.2646 25.8634L51.232 25.61ZM50.036 23.712L49.3852 24.4713L50.036 23.712ZM47.41 22.49L47.157 23.4575L47.1606 23.4584L47.41 22.49ZM42.86 22.048H41.86V23.048H42.86V22.048ZM42.86 17.472L42.849 16.4721L41.86 16.4829V17.472H42.86ZM46.786 17.03L47.0437 17.9962L46.786 17.03ZM49.256 15.886L49.8807 16.6669L49.8833 16.6648L49.256 15.886ZM50.556 14.092L49.6121 13.7616L50.556 14.092ZM49.464 7.774L48.7766 8.50032L48.7836 8.50679L49.464 7.774ZM41.69 7.618L42.3114 8.40154L42.3196 8.39493L41.69 7.618ZM39.584 10.712L40.5376 11.0131L40.5378 11.0125L39.584 10.712ZM38.726 12.142L39.332 12.9374L39.3438 12.9285L39.3552 12.9192L38.726 12.142ZM36.412 12.48L36.2378 13.4648L36.2476 13.4664L36.412 12.48ZM33.032 11.882L32.0422 11.7392L31.904 12.698L32.8578 12.8667L33.032 11.882ZM34.54 7.15L35.4158 7.63279L35.4183 7.62807L34.54 7.15ZM37.322 3.744L37.9526 4.52011L37.9539 4.51902L37.322 3.744ZM41.17 1.69L41.4689 2.6443L41.476 2.64203L41.17 1.69ZM45.85 1.988C47.487 1.988 48.9291 2.22534 50.1892 2.68213L50.8708 0.801862C49.3576 0.253327 47.6796 -0.0120001 45.85 -0.0120001V1.988ZM50.2033 2.68712C51.4969 3.13429 52.5734 3.75586 53.4512 4.54124L54.7848 3.05076C53.6866 2.06813 52.3711 1.32037 50.8567 0.796873L50.2033 2.68712ZM53.4586 4.54776C54.3393 5.32037 55.0051 6.22498 55.4651 7.26764L57.2949 6.46036C56.7149 5.14569 55.8727 4.00496 54.7774 3.04424L53.4586 4.54776ZM55.4701 7.27881C55.9447 8.31987 56.186 9.45145 56.186 10.686H58.186C58.186 9.18188 57.89 7.76546 57.2899 6.44919L55.4701 7.27881ZM56.186 10.686C56.186 11.8071 56.0558 12.7638 55.8127 13.569L57.7273 14.147C58.0389 13.1149 58.186 11.9569 58.186 10.686H56.186ZM55.8092 13.5808C55.5804 14.3738 55.2437 15.0471 54.8074 15.6143L56.3926 16.8337C56.9963 16.0489 57.4396 15.1449 57.7308 14.1352L55.8092 13.5808ZM54.7975 15.6273C54.3721 16.1994 53.8414 16.688 53.1962 17.0931L54.2598 18.7869C55.1053 18.256 55.8226 17.6006 56.4025 16.8207L54.7975 15.6273ZM53.1872 17.0988C52.5383 17.516 51.7836 17.8721 50.9158 18.1613L51.5482 20.0587C52.5525 19.7239 53.4617 19.3 54.2688 18.7812L53.1872 17.0988ZM50.9312 20.0637C53.0448 20.7303 54.5282 21.7161 55.4806 22.966L57.0714 21.754C55.8051 20.0919 53.9259 18.911 51.5328 18.1563L50.9312 20.0637ZM55.4806 22.966C56.4319 24.2147 56.94 25.8179 56.94 27.846H58.94C58.94 25.4714 58.3387 23.4173 57.0714 21.754L55.4806 22.966ZM56.94 27.846C56.94 29.5934 56.6169 31.096 55.9992 32.3779L57.8008 33.2461C58.5698 31.6506 58.94 29.8426 58.94 27.846H56.94ZM55.9992 32.3779C55.365 33.6937 54.5153 34.7923 53.4496 35.6856L54.7344 37.2184C56.026 36.1357 57.0483 34.8076 57.8008 33.2461L55.9992 32.3779ZM53.4563 35.6801C52.3819 36.5648 51.1262 37.2433 49.6773 37.7102L50.2907 39.6138C51.9618 39.0753 53.4447 38.2805 54.7277 37.2239L53.4563 35.6801ZM49.6742 37.7112C48.2382 38.1791 46.7053 38.416 45.07 38.416V40.416C46.9014 40.416 48.6445 40.1502 50.2938 39.6128L49.6742 37.7112ZM45.07 38.416C43.2536 38.416 41.7106 38.2073 40.4249 37.8105L39.8351 39.7215C41.3574 40.1914 43.1077 40.416 45.07 40.416V38.416ZM40.4249 37.8105C39.1324 37.4116 38.0277 36.8279 37.0965 36.0675L35.8315 37.6165C36.9803 38.5548 38.3196 39.2538 39.8351 39.7215L40.4249 37.8105ZM37.0965 36.0675C36.1534 35.2972 35.3447 34.349 34.6727 33.2129L32.9513 34.2311C33.7353 35.5564 34.6946 36.6881 35.8315 37.6165L37.0965 36.0675ZM34.6727 33.2129C33.9886 32.0564 33.393 30.705 32.8917 29.151L30.9883 29.765C31.527 31.435 32.1794 32.9263 32.9513 34.2311L34.6727 33.2129ZM32.3216 30.3823L35.1556 29.2123L34.3924 27.3637L31.5584 28.5337L32.3216 30.3823ZM35.1679 29.2071C35.5352 29.0498 35.8955 28.976 36.256 28.976V26.976C35.6111 26.976 34.9835 27.1102 34.3801 27.3689L35.1679 29.2071ZM36.256 28.976C36.5619 28.976 36.7905 29.0395 36.9701 29.1382L37.9339 27.3858C37.4201 27.1032 36.8514 26.976 36.256 26.976V28.976ZM36.988 29.1478C37.1717 29.2441 37.3019 29.3743 37.3982 29.558L39.1698 28.63C38.8848 28.0857 38.4603 27.6613 37.916 27.3762L36.988 29.1478ZM37.3947 29.5513C37.7188 30.1816 38.0697 30.8023 38.4472 31.4135L40.1488 30.3625C39.7983 29.795 39.4732 29.2198 39.1733 28.6367L37.3947 29.5513ZM38.4584 31.4313C38.8874 32.0942 39.3954 32.6902 39.981 33.2173L41.319 31.7307C40.8646 31.3218 40.4713 30.8604 40.1376 30.3447L38.4584 31.4313ZM39.9951 33.2297C40.601 33.7548 41.2986 34.1807 42.0789 34.5123L42.8611 32.6717C42.2547 32.4139 41.739 32.0945 41.3049 31.7183L39.9951 33.2297ZM42.1065 34.5236C42.9598 34.8566 43.9294 35.008 44.992 35.008V33.008C44.1133 33.008 43.4015 32.8821 42.8335 32.6604L42.1065 34.5236ZM44.992 35.008C46.1881 35.008 47.2798 34.8183 48.2436 34.4082L47.4604 32.5678C46.7949 32.8511 45.9799 33.008 44.992 33.008V35.008ZM48.2599 34.401C49.1792 33.9903 49.9691 33.4497 50.6088 32.7687L49.1512 31.3993C48.7162 31.8623 48.1542 32.2577 47.4441 32.575L48.2599 34.401ZM50.5979 32.7801C51.241 32.117 51.7264 31.3688 52.0383 30.5371L50.1657 29.8349C49.9576 30.3898 49.6284 30.907 49.1621 31.3879L50.5979 32.7801ZM52.0336 30.5495C52.3528 29.7316 52.518 28.8979 52.518 28.054H50.518C50.518 28.6314 50.4059 29.2191 50.1704 29.8225L52.0336 30.5495ZM52.518 28.054C52.518 27.0834 52.4155 26.1817 52.1994 25.3566L50.2646 25.8634C50.4299 26.4943 50.518 27.2219 50.518 28.054H52.518ZM52.2008 25.3622C51.9572 24.4097 51.4431 23.601 50.6868 22.9527L49.3852 24.4713C49.8422 24.863 50.1255 25.3196 50.2632 25.8578L52.2008 25.3622ZM50.6868 22.9527C49.922 22.2972 48.8863 21.8376 47.6594 21.5216L47.1606 23.4584C48.2217 23.7317 48.9367 24.0868 49.3852 24.4713L50.6868 22.9527ZM47.663 21.5225C46.4182 21.197 44.8053 21.048 42.86 21.048V23.048C44.7281 23.048 46.1484 23.1937 47.157 23.4575L47.663 21.5225ZM43.86 22.048V17.472H41.86V22.048H43.86ZM42.871 18.4719C44.4968 18.4541 45.8953 18.3025 47.0437 17.9962L46.5283 16.0638C45.5967 16.3122 44.3779 16.4553 42.849 16.4721L42.871 18.4719ZM47.0437 17.9962C48.1693 17.6961 49.1327 17.2653 49.8807 16.6669L48.6313 15.1051C48.166 15.4774 47.4827 15.8093 46.5283 16.0638L47.0437 17.9962ZM49.8833 16.6648C50.6389 16.0561 51.19 15.3076 51.4999 14.4223L49.6121 13.7616C49.4367 14.263 49.1211 14.7106 48.6287 15.1072L49.8833 16.6648ZM51.4999 14.4223C51.7843 13.6098 51.92 12.7338 51.92 11.804H49.92C49.92 12.5382 49.8131 13.1876 49.6121 13.7616L51.4999 14.4223ZM51.92 11.804C51.92 9.84131 51.3825 8.19084 50.1445 7.0412L48.7836 8.50679C49.4868 9.15983 49.92 10.196 49.92 11.804H51.92ZM50.1514 7.0477C48.9503 5.911 47.3541 5.396 45.486 5.396V7.396C46.9806 7.396 48.0363 7.79967 48.7766 8.50029L50.1514 7.0477ZM45.486 5.396C43.7742 5.396 42.2745 5.85726 41.0604 6.84107L42.3196 8.39493C43.1162 7.7494 44.1471 7.396 45.486 7.396V5.396ZM41.0686 6.8345C39.9012 7.7604 39.0868 8.96243 38.6302 10.4115L40.5378 11.0125C40.8786 9.93091 41.4682 9.07027 42.3114 8.4015L41.0686 6.8345ZM38.6304 10.4109C38.455 10.9663 38.2519 11.2392 38.0968 11.3648L39.3552 12.9192C39.9281 12.4555 40.297 11.775 40.5376 11.0131L38.6304 10.4109ZM38.12 11.3466C37.9746 11.4573 37.7298 11.558 37.296 11.558V13.558C38.0408 13.558 38.7494 13.3814 39.332 12.9374L38.12 11.3466ZM37.296 11.558C37.0808 11.558 36.8415 11.5378 36.5764 11.4936L36.2476 13.4664C36.6065 13.5262 36.9566 13.558 37.296 13.558V11.558ZM36.5862 11.4953L33.2062 10.8973L32.8578 12.8667L36.2378 13.4647L36.5862 11.4953ZM34.0218 12.0248C34.2676 10.3204 34.738 8.86213 35.4157 7.63278L33.6643 6.66722C32.8513 8.14186 32.3164 9.83828 32.0422 11.7392L34.0218 12.0248ZM35.4183 7.62807C36.107 6.36283 36.9533 5.33202 37.9526 4.52011L36.6914 2.96788C35.472 3.95865 34.4637 5.1985 33.6617 6.67193L35.4183 7.62807ZM37.9539 4.51902C38.9784 3.68372 40.1471 3.05835 41.4689 2.64427L40.8711 0.735723C39.3156 1.22298 37.919 1.96695 36.6901 2.96898L37.9539 4.51902ZM41.476 2.64203C42.8248 2.20849 44.2808 1.988 45.85 1.988V-0.0120001C44.0912 -0.0120001 42.4272 0.235512 40.864 0.737969L41.476 2.64203Z" fill="#E4E4E4"/>
</svg>
