<svg width="59" height="40" viewBox="0 0 59 40" fill="none" xmlns="http://www.w3.org/2000/svg">
<path d="M27.0299 28.756L26.0702 28.4749L26.0689 28.4795L27.0299 28.756ZM24.1179 34.736L23.3337 34.1155L23.3295 34.1209L24.1179 34.736ZM19.7239 38.272L20.137 39.1827L20.1412 39.1808L19.7239 38.272ZM8.80394 38.272L8.37947 39.1775L8.39084 39.1827L8.80394 38.272ZM4.46194 34.736L3.67352 35.3511H3.67352L4.46194 34.736ZM1.57594 28.756L0.614411 29.0307L0.614937 29.0325L1.57594 28.756ZM1.57594 11.648L2.53694 11.9245L1.57594 11.648ZM4.46194 5.668L3.67352 5.05286L4.46194 5.668ZM8.80394 2.158L9.2206 3.06707L9.22477 3.06514L8.80394 2.158ZM19.7239 2.158L19.3031 3.0652L19.3143 3.07027L19.7239 2.158ZM24.1179 5.668L23.3295 6.28315L23.3337 6.28848L24.1179 5.668ZM27.0299 11.648L26.0689 11.9246L26.0708 11.9309L27.0299 11.648ZM20.8679 13.442L19.892 13.6599L20.8679 13.442ZM19.2559 9.178L18.4071 9.70678L18.4134 9.71666L19.2559 9.178ZM16.9679 6.968L16.5207 7.86242L16.5279 7.86603L16.5352 7.86952L16.9679 6.968ZM11.5859 6.968L12.0258 7.86609L12.0332 7.86242L11.5859 6.968ZM9.32394 9.178L8.47516 8.64925L9.32394 9.178ZM7.73794 13.442L6.76193 13.2241L6.76 13.2331L7.73794 13.442ZM7.73794 26.962L6.75995 27.1709L6.76197 27.1799L7.73794 26.962ZM9.32394 31.226L8.47516 31.7547L9.32394 31.226ZM11.5859 33.462L11.1315 34.3528L11.1423 34.3583L11.1532 34.3635L11.5859 33.462ZM16.9679 33.462L17.4007 34.3635L17.4079 34.36L17.4152 34.3564L16.9679 33.462ZM19.2559 31.226L18.4134 30.6873L18.4072 30.6973L19.2559 31.226ZM27.0959 20.202C27.0959 23.4093 26.7476 26.1619 26.0702 28.4749L27.9896 29.0371C28.7336 26.4968 29.0959 23.5467 29.0959 20.202H27.0959ZM26.0689 28.4795C25.403 30.7935 24.4837 32.662 23.3337 34.1155L24.9022 35.3565C26.2481 33.6553 27.2702 31.5372 27.9909 29.0325L26.0689 28.4795ZM23.3295 34.1209C22.1902 35.5811 20.8498 36.6547 19.3066 37.3632L20.1412 39.1808C21.9955 38.3293 23.5844 37.0455 24.9064 35.3511L23.3295 34.1209ZM19.3108 37.3613C17.7671 38.0616 16.089 38.416 14.2639 38.416V40.416C16.3562 40.416 18.3181 40.0078 20.137 39.1827L19.3108 37.3613ZM14.2639 38.416C12.4389 38.416 10.7608 38.0616 9.21703 37.3613L8.39084 39.1827C10.2098 40.0078 12.1716 40.416 14.2639 40.416V38.416ZM9.22837 37.3665C7.71919 36.6591 6.39297 35.5853 5.25036 34.1209L3.67352 35.3511C4.99223 37.0413 6.56068 38.3249 8.3795 39.1775L9.22837 37.3665ZM5.25036 34.1209C4.11547 32.6663 3.20354 30.7959 2.53694 28.4795L0.614937 29.0325C1.335 31.5348 2.34707 33.651 3.67352 35.3511L5.25036 34.1209ZM2.53746 28.4813C1.87594 26.1659 1.53594 23.4111 1.53594 20.202H-0.464063C-0.464063 23.5449 -0.110728 26.4927 0.614413 29.0307L2.53746 28.4813ZM1.53594 20.202C1.53594 16.9747 1.87611 14.2209 2.53694 11.9245L0.614937 11.3715C-0.110903 13.8937 -0.464063 16.8426 -0.464063 20.202H1.53594ZM2.53694 11.9245C3.20354 9.6081 4.11547 7.73771 5.25036 6.28314L3.67352 5.05286C2.34707 6.75296 1.335 8.86923 0.614937 11.3715L2.53694 11.9245ZM5.25036 6.28314C6.39179 4.82017 7.71549 3.7569 9.22059 3.06706L8.38728 1.24893C6.56438 2.08443 4.99342 3.36116 3.67352 5.05286L5.25036 6.28314ZM9.22477 3.06514C10.7668 2.34976 12.4422 1.988 14.2639 1.988V-0.0120001C12.1683 -0.0120001 10.2037 0.406239 8.3831 1.25086L9.22477 3.06514ZM14.2639 1.988C16.0857 1.988 17.7611 2.34976 19.3031 3.06514L20.1448 1.25086C18.3241 0.406239 16.3595 -0.0120001 14.2639 -0.0120001V1.988ZM19.3143 3.07027C20.8535 3.7613 22.1914 4.82441 23.3295 6.28314L24.9064 5.05286C23.5832 3.35692 21.9917 2.08003 20.1335 1.24573L19.3143 3.07027ZM23.3337 6.28848C24.4837 7.74199 25.403 9.61049 26.0689 11.9245L27.9909 11.3715C27.2702 8.86684 26.2481 6.74867 24.9022 5.04752L23.3337 6.28848ZM26.0708 11.9309C26.7475 14.225 27.0959 16.9765 27.0959 20.202H29.0959C29.0959 16.8408 28.7338 13.8897 27.9891 11.3651L26.0708 11.9309ZM22.4659 20.202C22.4659 17.4392 22.2642 15.1065 21.8439 13.2241L19.892 13.6599C20.269 15.3482 20.4659 17.5221 20.4659 20.202H22.4659ZM21.8439 13.2241C21.4304 11.3723 20.859 9.82893 20.0985 8.63934L18.4134 9.71666C19.0049 10.6417 19.5081 11.9411 19.892 13.6599L21.8439 13.2241ZM20.1047 8.64925C19.3749 7.47765 18.4825 6.58574 17.4007 6.06647L16.5352 7.86952C17.1867 8.18225 17.8197 8.76368 18.4072 9.70675L20.1047 8.64925ZM17.4152 6.07357C16.4147 5.57333 15.3607 5.318 14.2639 5.318V7.318C15.0391 7.318 15.7879 7.49599 16.5207 7.86242L17.4152 6.07357ZM14.2639 5.318C13.1815 5.318 12.1364 5.57471 11.1387 6.07357L12.0332 7.86242C12.7688 7.49461 13.509 7.318 14.2639 7.318V5.318ZM11.1461 6.06993C10.0831 6.5906 9.20214 7.48225 8.47516 8.64925L10.1727 9.70675C10.7631 8.75908 11.3902 8.1774 12.0258 7.86606L11.1461 6.06993ZM8.47516 8.64925C7.73596 9.83585 7.17478 11.3754 6.76197 13.2241L8.7139 13.6599C9.09842 11.9379 9.59458 10.6348 10.1727 9.70675L8.47516 8.64925ZM6.76 13.2331C6.35875 15.1117 6.16594 17.4411 6.16594 20.202H8.16594C8.16594 17.5202 8.35446 15.343 8.71588 13.6509L6.76 13.2331ZM6.16594 20.202C6.16594 22.9629 6.35875 25.2923 6.76 27.1709L8.71588 26.7531C8.35446 25.061 8.16594 22.8838 8.16594 20.202H6.16594ZM6.76197 27.1799C7.17478 29.0286 7.73596 30.5681 8.47516 31.7547L10.1727 30.6973C9.59458 29.7692 9.09842 28.4661 8.7139 26.7441L6.76197 27.1799ZM8.47516 31.7547C9.20114 32.9201 10.0778 33.8152 11.1315 34.3528L12.0404 32.5712C11.3954 32.2422 10.7641 31.6465 10.1727 30.6973L8.47516 31.7547ZM11.1532 34.3635C12.1485 34.8413 13.1885 35.086 14.2639 35.086V33.086C13.5021 33.086 12.7567 32.9147 12.0187 32.5605L11.1532 34.3635ZM14.2639 35.086C15.3539 35.086 16.4027 34.8425 17.4007 34.3635L16.5352 32.5605C15.7998 32.9135 15.046 33.086 14.2639 33.086V35.086ZM17.4152 34.3564C18.4878 33.8201 19.3759 32.9247 20.1047 31.7547L18.4072 30.6973C17.8186 31.642 17.1814 32.2372 16.5207 32.5676L17.4152 34.3564ZM20.0985 31.7647C20.859 30.5751 21.4304 29.0317 21.8439 27.1799L19.892 26.7441C19.5081 28.4629 19.0049 29.7623 18.4134 30.6873L20.0985 31.7647ZM21.8439 27.1799C22.2642 25.2975 22.4659 22.9648 22.4659 20.202H20.4659C20.4659 22.8819 20.269 25.0558 19.892 26.7441L21.8439 27.1799ZM54.092 24.83H53.092V25.83H54.092V24.83ZM58.824 24.83H59.824V23.83H58.824V24.83ZM58.486 29.458L59.2188 30.1385L59.2305 30.1259L59.2417 30.1129L58.486 29.458ZM54.092 29.822V28.822H53.092V29.822H54.092ZM54.092 39V40H55.092V39H54.092ZM48.476 39H47.476V40H48.476V39ZM48.476 29.822H49.476V28.822H48.476V29.822ZM31.472 29.432L30.8279 30.1969L30.84 30.2071L30.8524 30.2169L31.472 29.432ZM30.848 28.418L29.8674 28.6141L29.8691 28.6223L29.8708 28.6304L30.848 28.418ZM30.198 25.168L29.3975 24.5687L29.1298 24.9262L29.2174 25.3641L30.198 25.168ZM48.008 1.378V0.377999H47.5075L47.2075 0.7787L48.008 1.378ZM54.092 1.378H55.092V0.377999H54.092V1.378ZM48.528 10.738L49.5265 10.792L48.528 10.738ZM48.71 8.736L49.7023 8.86003L47.9005 8.14884L48.71 8.736ZM37.036 24.83L36.2265 24.2428L35.0753 25.83H37.036V24.83ZM48.476 24.83V25.83H49.476V24.83H48.476ZM54.092 25.83H58.824V23.83H54.092V25.83ZM57.824 24.83V28.548H59.824V24.83H57.824ZM57.824 28.548C57.824 28.6561 57.7968 28.7264 57.7303 28.8031L59.2417 30.1129C59.6259 29.6696 59.824 29.1332 59.824 28.548H57.824ZM57.7532 28.7775C57.7519 28.779 57.7509 28.7799 57.7488 28.7812C57.7466 28.7827 57.7394 28.7871 57.7243 28.7927C57.6929 28.8042 57.6234 28.822 57.498 28.822V30.822C58.1191 30.822 58.7505 30.6428 59.2188 30.1385L57.7532 28.7775ZM57.498 28.822H54.092V30.822H57.498V28.822ZM53.092 29.822V39H55.092V29.822H53.092ZM54.092 38H48.476V40H54.092V38ZM49.476 39V29.822H47.476V39H49.476ZM48.476 28.822H32.616V30.822H48.476V28.822ZM32.616 28.822C32.3996 28.822 32.2383 28.7629 32.0916 28.6471L30.8524 30.2169C31.3643 30.6211 31.9658 30.822 32.616 30.822V28.822ZM32.1161 28.6671C31.9458 28.5236 31.8622 28.3759 31.8252 28.2056L29.8708 28.6304C30.0071 29.2574 30.3396 29.7857 30.8279 30.1969L32.1161 28.6671ZM31.8286 28.2219L31.1786 24.9719L29.2174 25.3641L29.8674 28.6141L31.8286 28.2219ZM30.9985 25.7673L48.8085 1.9773L47.2075 0.7787L29.3975 24.5687L30.9985 25.7673ZM48.008 2.378H54.092V0.377999H48.008V2.378ZM53.092 1.378V24.83H55.092V1.378H53.092ZM49.476 12.532C49.476 11.9979 49.4927 11.4181 49.5265 10.792L47.5295 10.684C47.494 11.3406 47.476 11.9568 47.476 12.532H49.476ZM49.5265 10.792C49.5598 10.176 49.6183 9.5321 49.7023 8.86003L47.7177 8.61197C47.6284 9.32657 47.5655 10.0173 47.5295 10.684L49.5265 10.792ZM47.9005 8.14884L36.2265 24.2428L37.8455 25.4172L49.5195 9.32316L47.9005 8.14884ZM37.036 25.83H48.476V23.83H37.036V25.83ZM49.476 24.83V12.532H47.476V24.83H49.476Z" fill="#E4E4E4"/>
</svg>
