<svg width="32" height="32" viewBox="0 0 32 32" fill="none" xmlns="http://www.w3.org/2000/svg">
<path d="M31.6095 0.390382C31.3595 0.140421 31.0204 0 30.6669 0C30.3133 0 29.9742 0.140421 29.7242 0.390382L16.0002 14.1144L2.2762 0.390382C2.02617 0.140421 1.68709 0 1.33354 0C0.979985 0 0.640907 0.140421 0.39087 0.390382C0.140909 0.640419 0.000488281 0.979496 0.000488281 1.33305C0.000488281 1.6866 0.140909 2.02568 0.39087 2.27572L14.1149 15.9997L0.39087 29.7237C0.140909 29.9737 0.000488281 30.3128 0.000488281 30.6664C0.000488281 31.0199 0.140909 31.359 0.39087 31.609C0.640907 31.859 0.979985 31.9994 1.33354 31.9994C1.68709 31.9994 2.02617 31.859 2.2762 31.609L16.0002 17.885L29.7242 31.609C29.9742 31.859 30.3133 31.9994 30.6669 31.9994C31.0204 31.9994 31.3595 31.859 31.6095 31.609C31.8595 31.359 31.9999 31.0199 31.9999 30.6664C31.9999 30.3128 31.8595 29.9737 31.6095 29.7237L17.8855 15.9997L31.6095 2.27572C31.8595 2.02568 31.9999 1.6866 31.9999 1.33305C31.9999 0.979496 31.8595 0.640419 31.6095 0.390382Z" fill="currentColor"/>
</svg>
