<svg width="16" height="16" viewBox="0 0 16 16" fill="none" xmlns="http://www.w3.org/2000/svg">
<g clip-path="url(#clip0_1272_1410)">
<path d="M8.00043 0C4.71046 0 2.03394 2.6776 2.03394 5.96886C2.03394 10.8726 7.40654 15.6607 7.63533 15.8622C7.73963 15.9541 7.87 16.0001 8.00043 16.0001C8.13085 16.0001 8.26122 15.9541 8.36557 15.8622C8.59426 15.6608 13.9669 10.8727 13.9669 5.96886C13.9669 2.6776 11.2904 0 8.00043 0Z" fill="#121A5B"/>
<path d="M8.00114 3.3335C6.53071 3.3335 5.33447 4.52976 5.33447 6.00016C5.33447 7.47062 6.53071 8.66683 8.00114 8.66683C9.47157 8.66683 10.6678 7.47062 10.6678 6.00016C10.6678 4.52976 9.47157 3.3335 8.00114 3.3335ZM8.00114 7.60717C7.11887 7.60717 6.40111 6.88628 6.40111 6.00016C6.40111 5.1141 7.11887 4.39316 8.00114 4.39316C8.88341 4.39316 9.60117 5.11405 9.60117 6.00016C9.60117 6.88628 8.88341 7.60717 8.00114 7.60717Z" fill="white"/>
<ellipse cx="7.99943" cy="6.00016" rx="2.66667" ry="2.66667" fill="white"/>
</g>
<defs>
<clipPath id="clip0_1272_1410">
<rect width="16" height="16" fill="white"/>
</clipPath>
</defs>
</svg>
