<svg width="177" height="48" viewBox="0 0 177 48" fill="none" xmlns="http://www.w3.org/2000/svg">
<path d="M34.7771 1.82246C34.7467 3.46297 34.6252 3.8579 34.1391 4.19208C33.4403 4.6174 33.2581 6.83512 33.9264 7.07815C34.2302 7.19967 34.2302 7.26043 33.9264 7.26043C33.0454 7.32119 33.6226 7.86803 34.6555 7.95917C35.6581 8.05031 35.7492 8.14145 35.7796 9.05284C35.81 9.99461 35.7796 10.025 34.5948 10.025C33.41 10.025 33.41 10.025 34.0783 10.5111C34.4429 10.7541 35.5062 11.0579 36.4176 11.149C38.0885 11.3313 39.4859 12.1516 38.1188 12.1516C37.7543 12.1516 36.9948 12.3946 36.4176 12.7288L35.3543 13.2756L36.7214 14.0047C37.4809 14.3997 38.0885 14.7946 38.0885 14.8857C38.0885 14.9769 37.3593 15.4933 36.4479 16.0402C34.8682 16.982 34.6859 17.0123 31.4353 17.0123C28.3062 17.0123 27.9416 17.0731 26.7568 17.8022C26.0581 18.2579 25.4505 18.6528 25.3897 18.6832C25.3593 18.7136 25.3897 18.987 25.5112 19.2604C25.6631 19.625 26.1188 19.7465 27.4252 19.7769C28.3669 19.7769 29.734 19.8984 30.4328 19.9895L31.7695 20.2022L30.9796 20.9617C30.0074 21.8427 27.3644 22.2073 23.6581 21.9946L21.2277 21.8427L19.7695 23.2402L18.2809 24.6073H21.5011C23.2631 24.6073 24.7214 24.6984 24.7214 24.8199C24.7214 24.9718 24.2049 25.6098 23.5973 26.2478L22.5036 27.4326L19.253 27.2503L15.972 27.068L14.2707 29.6503C12.7517 31.8984 12.4479 32.2022 11.6581 32.2022C10.8682 32.2022 10.5644 31.8984 9.07579 29.6807L7.37453 27.1288L8.6201 25.9136C9.83529 24.668 10.0176 24.1212 9.86567 22.025C9.68339 19.5642 7.73909 18.5617 3.24288 18.5313H0.11377V26.1263V33.7212H1.48086H2.84795V30.5313V27.3414H3.69858C4.39731 27.3414 4.79225 27.7668 6.58466 30.5313L8.6201 33.7212H60.0834H111.516L112.549 33.0225C113.43 32.4452 113.582 32.1414 113.673 30.987C113.795 29.2554 113.4 28.7389 111.121 27.5541C109.845 26.8554 109.329 26.3997 109.329 25.9744C109.329 25.4275 109.511 25.3668 111 25.3971C112.671 25.4275 113.126 25.1845 113.126 24.2427C113.126 23.8782 112.701 23.6655 111.699 23.4528C110.939 23.2706 110.149 23.1794 109.967 23.2402C109.785 23.3009 109.268 23.4225 108.812 23.5136C106.959 23.9389 106.139 26.0959 107.294 27.5541C107.567 27.9187 108.569 28.6174 109.481 29.1035C110.757 29.8022 111.182 30.1668 111.243 30.7744C111.334 31.4123 111.182 31.625 110.514 31.7769C110.058 31.8984 109.238 31.8073 108.661 31.625C107.749 31.2908 107.567 31.2908 107.263 31.7161C106.959 32.1414 106.291 32.2022 102.676 32.1414L98.453 32.0503L102.433 27.8579C104.65 25.5794 106.443 23.6047 106.443 23.4832C106.443 23.3921 102.706 23.3921 98.1188 23.4832L89.7948 23.6959L84.691 22.663C81.8657 22.0857 78.615 21.5389 77.4302 21.4478C72.7214 21.0225 72.4479 20.9617 72.3264 20.263C72.2049 19.5946 72.2049 19.5946 72.1441 20.263C72.1138 20.9009 71.9619 20.9617 70.1391 20.9617H68.1644V19.7465V18.5313L70.0783 18.744C71.1112 18.8351 72.0226 19.0478 72.053 19.1997C72.2353 19.625 73.6328 19.4731 73.6328 19.0174C73.6328 18.349 73.3593 18.2579 68.8631 17.468C63.091 16.4351 63.3036 16.4959 63.3036 15.6756C63.3036 14.9769 63.2125 14.9465 59.9011 14.7642C54.3112 14.4301 53.5821 14.3085 53.5821 13.6402C53.5821 13.1237 53.3391 13.063 51.1214 13.063C48.6302 13.063 43.8606 12.0301 43.8606 11.4832C43.8606 11.3617 44.6809 11.2402 45.6834 11.2402C47.1112 11.2402 47.5062 11.149 47.5062 10.7845C47.5062 10.4199 47.0809 10.3288 45.3796 10.3288C43.7391 10.3288 43.253 10.2376 43.253 9.90347C43.253 9.66043 43.6176 9.38701 44.1036 9.32626C44.6809 9.23512 44.5593 9.20474 43.6479 9.14398C42.6758 9.1136 42.4024 9.20474 42.5239 9.53891C42.8885 10.4807 39.3644 10.6326 38.5441 9.72119C37.9973 9.1136 38.0277 9.1136 39.091 9.1136C39.729 9.1136 40.215 8.9617 40.215 8.8098C40.215 8.62752 40.0935 8.506 39.9112 8.506C39.4555 8.506 39.5467 7.59461 40.0024 7.56423C40.1847 7.56423 40.0935 7.44271 39.7593 7.29081C38.9998 6.95663 38.1188 6.89588 38.5745 7.23005C38.7568 7.35157 38.9695 7.68575 39.091 7.95917C39.2429 8.41486 39.1214 8.506 38.4226 8.506C37.9366 8.506 37.4809 8.29334 37.3593 8.05031C37.2682 7.80727 36.9644 7.59461 36.691 7.59461C36.296 7.59461 36.2657 7.50347 36.5695 7.13891C37.1467 6.44018 36.691 4.70853 35.7796 4.10094C35.2935 3.79714 35.0505 3.4022 35.1416 3.06803C35.2024 2.79461 35.172 1.94398 35.0505 1.21486C34.8378 -0.121845 34.8074 -0.091465 34.7771 1.82246ZM42.3416 16.6782C42.3416 17.1642 41.4302 17.3161 38.7872 17.3161C36.5087 17.3161 36.2353 17.2554 36.5695 16.8604C36.8429 16.5263 37.6328 16.4047 39.6378 16.4047C41.1264 16.4047 42.3416 16.5263 42.3416 16.6782ZM60.8733 19.4427C60.8733 20.2022 60.7517 20.3541 60.1138 20.3541C59.0809 20.3541 59.0201 18.9566 60.053 18.744C60.4176 18.6832 60.7517 18.5921 60.8125 18.5617C60.8429 18.5617 60.8733 18.9263 60.8733 19.4427ZM63.3036 19.625C63.3036 20.6579 63.2733 20.6883 62.3315 20.5971C61.4505 20.506 61.329 20.3845 61.2378 19.5035C61.1467 18.5617 61.1771 18.5313 62.21 18.5313C63.2733 18.5313 63.3036 18.5617 63.3036 19.625ZM65.4302 19.5946C65.4302 20.5668 65.3695 20.6579 64.5188 20.6579C63.6682 20.6579 63.6074 20.5668 63.6074 19.5946C63.6074 18.6225 63.6682 18.5313 64.5188 18.5313C65.3695 18.5313 65.4302 18.6225 65.4302 19.5946ZM67.8606 19.5946C67.8606 20.5971 67.7998 20.6579 66.7973 20.6579C65.7948 20.6579 65.734 20.5971 65.734 19.5946C65.734 18.5921 65.7948 18.5313 66.7973 18.5313C67.7998 18.5313 67.8606 18.5921 67.8606 19.5946ZM59.0505 19.5946C59.0505 20.4149 58.8074 20.4756 57.2581 20.1718L56.2859 19.9592L57.1366 19.4123C58.3517 18.5921 59.0505 18.6528 59.0505 19.5946ZM38.0277 20.5668L37.9366 22.025H36.7214H35.5062L35.415 20.5668L35.3239 19.1389H36.7214H38.1188L38.0277 20.5668ZM40.8226 20.506C40.8226 21.7516 40.7619 21.8731 40.0935 21.8731C39.6986 21.8731 39.1517 21.9642 38.8783 22.0554C38.4834 22.2073 38.3923 21.9946 38.3923 20.6883V19.1389H39.6074H40.8226V20.506ZM44.8328 19.4427H46.6252L46.534 20.5668L46.4429 21.7212L43.7998 21.8123L41.1264 21.9035V20.4756V19.0478L42.0682 19.2604C42.5847 19.3516 43.8302 19.4427 44.8328 19.4427ZM48.8733 20.3541C48.053 20.8402 47.2631 21.2655 47.1416 21.2655C46.9897 21.2655 46.8986 20.8402 46.8986 20.3541C46.8986 19.4427 46.8986 19.4427 48.6606 19.4427H50.3923L48.8733 20.3541ZM6.43276 21.4478C6.91883 21.782 7.10111 22.2073 7.10111 23.0579C7.10111 24.5465 6.55428 24.9718 4.48845 25.1541L2.84795 25.2756V23.1187V20.9617H4.30617C5.12643 20.9617 6.03782 21.1744 6.43276 21.4478ZM45.0758 25.6706V27.0376H43.8606C42.6454 27.0376 42.6454 27.0376 42.6454 25.8832C42.6454 24.4554 42.7669 24.3035 44.0733 24.3035C45.0758 24.3035 45.0758 24.3338 45.0758 25.6706ZM48.053 25.7313L48.1441 27.0376H46.929H45.6834V25.6402V24.2731L46.8378 24.3642C47.9315 24.4554 47.9619 24.4857 48.053 25.7313ZM32.2555 25.7313C32.1644 26.8554 32.134 26.8857 30.9492 26.8857C29.7644 26.8857 29.734 26.8554 29.6429 25.7313L29.5517 24.6073H30.9492H32.3467L32.2555 25.7313ZM35.0505 25.8225V27.0376H33.8353H32.6201V25.8225V24.6073H33.8353H35.0505V25.8225ZM37.7847 25.8225C37.7847 27.0073 37.7543 27.0376 36.7214 27.0376C35.6885 27.0376 35.6581 27.0073 35.6581 25.8225C35.6581 24.6376 35.6885 24.6073 36.7214 24.6073C37.7543 24.6073 37.7847 24.6376 37.7847 25.8225ZM53.5821 25.5187C53.5821 26.1263 53.4302 26.4301 53.1264 26.4301C52.8226 26.4301 52.6707 26.1263 52.6707 25.5187C52.6707 24.9111 52.8226 24.6073 53.1264 24.6073C53.4302 24.6073 53.5821 24.9111 53.5821 25.5187ZM54.7973 25.3668C54.7973 25.7921 54.6758 26.1263 54.4935 26.1263C54.3416 26.1263 54.1897 25.7921 54.1897 25.3668C54.1897 24.9414 54.3416 24.6073 54.4935 24.6073C54.6758 24.6073 54.7973 24.9414 54.7973 25.3668ZM62.696 26.1263C62.696 27.2807 62.5745 27.6452 62.2403 27.6452C61.9062 27.6452 61.7847 27.2807 61.7847 26.1263C61.7847 24.9718 61.9062 24.6073 62.2403 24.6073C62.5745 24.6073 62.696 24.9718 62.696 26.1263ZM65.1264 26.1263C65.1264 27.4326 65.0353 27.6452 64.5188 27.6452C64.0024 27.6452 63.9112 27.4326 63.9112 26.1263C63.9112 24.8199 64.0024 24.6073 64.5188 24.6073C65.0353 24.6073 65.1264 24.8199 65.1264 26.1263ZM67.253 26.1263C67.253 27.4326 67.1619 27.6452 66.6454 27.6452C66.129 27.6452 66.0378 27.4326 66.0378 26.1263C66.0378 24.8199 66.129 24.6073 66.6454 24.6073C67.1619 24.6073 67.253 24.8199 67.253 26.1263ZM72.1138 26.1263C72.1138 27.4326 72.0226 27.6452 71.5062 27.6452C70.9897 27.6452 70.8986 27.4326 70.8986 26.1263C70.8986 24.8199 70.9897 24.6073 71.5062 24.6073C72.0226 24.6073 72.1138 24.8199 72.1138 26.1263ZM74.5442 26.1263C74.5442 27.4326 74.453 27.6452 73.9366 27.6452C73.4201 27.6452 73.329 27.4326 73.329 26.1263C73.329 24.8199 73.4201 24.6073 73.9366 24.6073C74.453 24.6073 74.5442 24.8199 74.5442 26.1263ZM76.9745 26.1263C76.9745 27.4326 76.8834 27.6452 76.3669 27.6452C75.8505 27.6452 75.7593 27.4326 75.7593 26.1263C75.7593 24.8199 75.8505 24.6073 76.3669 24.6073C76.8834 24.6073 76.9745 24.8199 76.9745 26.1263ZM81.2277 26.1263C81.2277 27.4326 81.1366 27.6452 80.6201 27.6452C80.1036 27.6452 80.0125 27.4326 80.0125 26.1263C80.0125 24.8199 80.1036 24.6073 80.6201 24.6073C81.1366 24.6073 81.2277 24.8199 81.2277 26.1263Z" fill="currentColor"/>
<path d="M145.511 20.0201C144.812 20.7796 145.116 21.8125 146.119 22.0555C147.03 22.2985 147.759 21.7213 147.759 20.8403C147.759 19.4732 146.422 18.9872 145.511 20.0201Z" fill="currentColor"/>
<path d="M118.686 23.3921C114.007 24.4858 113.248 31.4428 117.592 33.2959C118.868 33.8428 121.086 33.8428 122.392 33.2959C123.607 32.7795 123.577 32.8099 123.091 31.7466C122.726 30.9567 122.392 30.7744 122.119 31.2605C121.541 32.1719 118.26 31.7466 117.683 30.6833C116.924 29.2554 117.136 29.1643 121.025 29.1643H124.67V27.9491C124.67 25.7618 123.334 23.9997 121.177 23.4225C120.508 23.2402 119.901 23.1187 119.81 23.1187C119.719 23.1491 119.202 23.2402 118.686 23.3921ZM121.541 25.8833C122.817 27.0681 122.483 27.3415 119.81 27.3415C117.167 27.3415 116.924 27.1592 118.139 25.9744C119.081 25.0023 120.569 24.9719 121.541 25.8833Z" fill="currentColor"/>
<path d="M130.291 23.3013C129.957 23.3925 129.501 23.6051 129.258 23.8178C128.924 24.0608 128.803 24.0608 128.711 23.757C128.62 23.5444 128.073 23.3925 127.375 23.3925H126.19V28.5874V33.752L127.344 33.6608L128.468 33.5697L128.62 30.0152C128.742 27.0684 128.863 26.4001 129.38 25.8228C129.866 25.3064 130.23 25.1849 131.081 25.3064C132.053 25.4279 132.236 25.3368 132.539 24.6684C132.752 24.2431 133.025 24.0304 133.147 24.1823C133.299 24.3342 134.332 26.552 135.456 29.1039C136.944 32.476 137.643 33.7216 137.977 33.6608C138.372 33.5697 142.868 24.395 142.899 23.6051C142.899 23.4836 142.382 23.3925 141.714 23.3925H140.56L139.405 26.1874C138.767 27.7368 138.16 29.1039 138.068 29.2254C137.947 29.3469 137.339 28.0709 136.701 26.4304L135.517 23.3925H133.815C132.873 23.3925 131.841 23.3317 131.506 23.2709C131.172 23.2102 130.625 23.2102 130.291 23.3013Z" fill="currentColor"/>
<path d="M153.136 23.5137C150.645 24.182 149.491 25.7921 149.491 28.5871C149.491 30.501 150.129 31.8985 151.465 32.901C152.589 33.7516 155.445 33.9643 156.964 33.3263C158.058 32.8706 158.088 32.8099 157.724 31.9896C157.238 30.8352 157.238 30.8352 156.721 31.2909C155.901 31.9896 153.622 31.8073 152.772 30.9871C152.134 30.3795 152.012 29.9845 152.012 28.5871C152.012 27.6453 152.195 26.6732 152.407 26.3997C153.258 25.2757 155.081 24.8807 156.326 25.5491C156.873 25.8225 157.055 25.7921 157.389 25.3364C157.602 25.0326 157.784 24.6073 157.784 24.3947C157.784 23.4529 155.202 22.9668 153.136 23.5137Z" fill="currentColor"/>
<path d="M162.645 23.4528C161.339 23.8174 159.972 25.0326 159.425 26.3389C158.392 28.7085 159.395 32.111 161.43 33.1743C162.706 33.8427 165.288 33.9034 166.777 33.2655C167.84 32.8402 167.84 32.8402 167.354 31.9288C166.898 31.0174 166.898 31.0174 165.805 31.4731C164.407 32.0503 162.827 31.7465 162.038 30.7743C160.883 29.2857 161.096 29.1642 165.045 29.1642C168.569 29.1642 168.66 29.1338 168.843 28.4655C169.025 27.6452 168.63 26.0655 167.962 25.0326C167.05 23.6351 164.559 22.906 162.645 23.4528ZM165.592 25.6705C165.926 25.9136 166.291 26.3996 166.382 26.7338C166.534 27.311 166.412 27.3414 164.134 27.3414C161.521 27.3414 161.248 27.1288 162.402 25.9136C163.162 25.0933 164.62 24.9718 165.592 25.6705Z" fill="currentColor"/>
<path d="M172.094 23.4228C170.635 23.7266 169.876 24.6076 169.876 25.9747C169.876 27.3114 170.453 27.9797 172.549 29.1341C174.311 30.1063 174.767 30.7443 174.22 31.4126C173.734 32.0202 172.489 32.0202 171.425 31.4734C170.666 31.0785 170.575 31.1088 170.271 31.8076C169.785 32.8709 169.846 33.0228 170.879 33.3873C173.127 34.1772 175.922 33.4785 176.59 32.0202C177.441 30.1367 176.56 28.5873 173.977 27.4329C172.61 26.8557 172.337 26.6126 172.428 26.0354C172.489 25.4886 172.732 25.3367 173.673 25.2759C174.311 25.2152 175.01 25.3367 175.253 25.519C175.557 25.762 175.709 25.6405 175.952 24.9114C176.225 24.1519 176.195 23.9696 175.77 23.7266C174.949 23.3316 173.218 23.1493 172.094 23.4228Z" fill="currentColor"/>
<path d="M144.114 24.2735C144.114 24.8811 144.296 25.1849 144.721 25.3064C145.299 25.4583 145.329 25.7317 145.329 29.6203V33.752L146.483 33.6608L147.607 33.5697L147.699 28.4659L147.759 23.3925H145.937C144.144 23.3925 144.114 23.3925 144.114 24.2735Z" fill="currentColor"/>
<path d="M44.4988 41.0429C39.9722 41.5897 35.3241 43.3214 32.7722 45.4176L31.8608 46.1467L33.714 45.4176C36.8735 44.1416 39.7292 43.6859 44.1646 43.6555C49.0558 43.6252 51.9418 44.1416 57.8355 46.0252C60.114 46.7543 62.9393 47.5138 64.0634 47.7264C68.2862 48.4555 72.8127 47.4834 74.9697 45.3872C76.0026 44.3847 77.8862 41.4986 77.8862 40.9214C77.8862 40.7695 77.1874 41.2555 76.3672 42.015C74.2102 43.9593 72.4178 44.5062 68.4684 44.4758C65.6431 44.415 64.7317 44.2631 60.4178 43.0176C53.552 41.0429 49.0862 40.4657 44.4988 41.0429Z" fill="currentColor"/>
</svg>
